<?xml version="1.0" encoding="UTF-8" standalone="no"?>
<svg
   xmlns:dc="http://purl.org/dc/elements/1.1/"
   xmlns:cc="http://creativecommons.org/ns#"
   xmlns:rdf="http://www.w3.org/1999/02/22-rdf-syntax-ns#"
   xmlns:svg="http://www.w3.org/2000/svg"
   xmlns="http://www.w3.org/2000/svg"
   xmlns:sodipodi="http://sodipodi.sourceforge.net/DTD/sodipodi-0.dtd"
   xmlns:inkscape="http://www.inkscape.org/namespaces/inkscape"
   viewBox="0 0 400 400"
   width="400"
   height="400"
   version="1.1"
   id="svg12"
   sodipodi:docname="words_3k.svg"
   inkscape:version="1.0.1 (3bc2e813f5, 2020-09-07)">
  <metadata
     id="metadata18">
    <rdf:RDF>
      <cc:Work
         rdf:about="">
        <dc:format>image/svg+xml</dc:format>
        <dc:type
           rdf:resource="http://purl.org/dc/dcmitype/StillImage" />
        <dc:title />
      </cc:Work>
    </rdf:RDF>
  </metadata>
  <defs
     id="defs16">
    <filter
       style="color-interpolation-filters:sRGB"
       inkscape:label="Cutout Glow"
       id="filter867-4"
       inkscape:menu-tooltip="In and out glow with a possible offset and colorizable flood"
       inkscape:menu="Shadows and Glows">
      <feFlood
         flood-opacity="0.498039"
         flood-color="rgb(0,0,0)"
         result="flood"
         id="feFlood857-7" />
      <feComposite
         in="flood"
         in2="SourceGraphic"
         operator="out"
         result="composite1"
         id="feComposite859-6" />
      <feGaussianBlur
         in="composite1"
         stdDeviation="3.5"
         result="blur"
         id="feGaussianBlur861-3" />
      <feOffset
         dx="3"
         dy="3"
         result="offset"
         id="feOffset863-1" />
      <feComposite
         in="offset"
         in2="SourceGraphic"
         operator="atop"
         result="fbSourceGraphic"
         id="feComposite865-7" />
      <feColorMatrix
         result="fbSourceGraphicAlpha"
         in="fbSourceGraphic"
         values="0 0 0 -1 0 0 0 0 -1 0 0 0 0 -1 0 0 0 0 1 0"
         id="feColorMatrix1019-5" />
      <feOffset
         id="feOffset1021-9"
         dy="3"
         dx="3"
         in="fbSourceGraphic" />
      <feGaussianBlur
         id="feGaussianBlur1023-6"
         stdDeviation="3"
         result="blur" />
      <feFlood
         id="feFlood1025-2"
         flood-color="rgb(0,0,0)"
         flood-opacity="1"
         result="flood" />
      <feComposite
         in2="fbSourceGraphic"
         id="feComposite1027-1"
         in="flood"
         operator="in"
         result="composite" />
      <feBlend
         in2="composite"
         id="feBlend1029-7"
         in="blur"
         mode="normal" />
    </filter>
    <filter
       style="color-interpolation-filters:sRGB;"
       inkscape:label="Drop Shadow"
       id="filter1276">
      <feFlood
         flood-opacity="0.498039"
         flood-color="rgb(0,0,0)"
         result="flood"
         id="feFlood1266" />
      <feComposite
         in="flood"
         in2="SourceGraphic"
         operator="out"
         result="composite1"
         id="feComposite1268" />
      <feGaussianBlur
         in="composite1"
         stdDeviation="3.5"
         result="blur"
         id="feGaussianBlur1270" />
      <feOffset
         dx="3"
         dy="3"
         result="offset"
         id="feOffset1272" />
      <feComposite
         in="offset"
         in2="SourceGraphic"
         operator="atop"
         result="composite2"
         id="feComposite1274" />
    </filter>
    <filter
       style="color-interpolation-filters:sRGB;"
       inkscape:label="Drop Shadow"
       id="filter1291">
      <feFlood
         flood-opacity="0.498039"
         flood-color="rgb(0,0,0)"
         result="flood"
         id="feFlood1281" />
      <feComposite
         in="flood"
         in2="SourceGraphic"
         operator="out"
         result="composite1"
         id="feComposite1283" />
      <feGaussianBlur
         in="composite1"
         stdDeviation="3.5"
         result="blur"
         id="feGaussianBlur1285" />
      <feOffset
         dx="3"
         dy="3"
         result="offset"
         id="feOffset1287" />
      <feComposite
         in="offset"
         in2="SourceGraphic"
         operator="atop"
         result="composite2"
         id="feComposite1289" />
    </filter>
  </defs>
  <sodipodi:namedview
     pagecolor="#ffffff"
     bordercolor="#666666"
     borderopacity="1"
     objecttolerance="10"
     gridtolerance="10"
     guidetolerance="10"
     inkscape:pageopacity="0"
     inkscape:pageshadow="2"
     inkscape:window-width="1848"
     inkscape:window-height="1016"
     id="namedview14"
     showgrid="false"
     inkscape:zoom="2.1725"
     inkscape:cx="149.92733"
     inkscape:cy="297.69886"
     inkscape:window-x="72"
     inkscape:window-y="27"
     inkscape:window-maximized="1"
     inkscape:current-layer="svg12"
     inkscape:document-rotation="0" />
  <polygon
     fill="#923f55"
     points="302.3,308.3 324.1,294.2 324.1,19.8 342.6,0 342.6,308.3 200,400 57.3,308.3 75.8,294.2 97.7,308.3 200,374.1 "
     id="polygon2"
     style="fill:#c87137;fill-opacity:1;filter:url(#filter1291)"
     transform="translate(0.04999275)" />
  <polygon
     fill="#ac5e75"
     points="57.3,0 342.6,0 324.1,19.8 75.8,19.8 75.8,294.2 57.3,308.3 "
     id="polygon4"
     style="fill:#a05a2c;fill-opacity:1"
     transform="translate(0.05)" />
  <polygon
     fill="#f5e0e3"
     points="75.8,294.2 75.8,19.8 324.1,19.8 324.1,294.2 302.3,308.3 200,374.1 97.7,308.3 "
     id="polygon6"
     style="fill:#f3e8e8;fill-opacity:1"
     transform="translate(0.05)" />
  <g
     aria-label="3 K"
     transform="matrix(0.84431961,0,0,0.84431961,27.46761,-54.522334)"
     id="text577"
     style="font-style:normal;font-weight:normal;font-size:57.3709px;line-height:1.25;font-family:sans-serif;fill:#000000;fill-opacity:1;stroke:none;stroke-width:1.43427;filter:url(#filter867-4)">
    <path
       d="m 129.38053,244.9175 q 7.71063,0 14.19736,-2.32543 6.60911,-2.32543 11.38236,-6.48672 4.89564,-4.1613 7.58824,-9.66889 2.81499,-5.62999 2.81499,-12.11671 0,-4.65086 -1.3463,-8.2002 -1.3463,-3.54934 -3.79412,-6.11955 -2.32543,-2.57021 -5.75237,-4.28368 -3.30456,-1.71348 -7.34346,-2.6926 l 27.66036,-21.05126 3.91651,-14.19735 h -57.89094 l -4.40607,16.15561 h 32.43361 l -25.21255,20.19451 0.73435,11.74954 h 5.26281 q 7.83303,0 12.2391,2.57021 4.52847,2.57021 4.52847,7.58824 0,2.32543 -1.22391,4.52847 -1.22391,2.20304 -3.42695,3.91651 -2.20304,1.59108 -5.14042,2.57021 -2.93738,0.97913 -6.36433,0.97913 -6.73151,0 -11.01519,-2.44782 -4.1613,-2.57021 -7.58824,-7.22107 L 97.681263,228.6395 q 4.283687,7.34346 11.871927,11.87192 7.71063,4.40608 19.82734,4.40608 z"
       style="font-style:italic;font-variant:normal;font-weight:bold;font-stretch:normal;font-size:122.391px;font-family:Gotham;-inkscape-font-specification:'Gotham, Bold Italic';font-variant-ligatures:normal;font-variant-caps:normal;font-variant-numeric:normal;font-variant-east-asian:normal;stroke-width:1.43427"
       id="path894" />
    <path
       d="m 211.87175,243.44881 h 18.84821 l 6.24194,-23.37668 17.74669,-15.17649 14.44214,38.55317 h 20.68408 L 269.6403,193.63567 311.37563,157.77511 H 285.9183 l -42.34729,37.94121 10.15846,-37.94121 h -18.84822 z"
       style="font-style:italic;font-variant:normal;font-weight:bold;font-stretch:normal;font-size:122.391px;font-family:Gotham;-inkscape-font-specification:'Gotham, Bold Italic';font-variant-ligatures:normal;font-variant-caps:normal;font-variant-numeric:normal;font-variant-east-asian:normal;stroke-width:1.43427"
       id="path896" />
  </g>
  <g
     id="g14453"
     transform="matrix(0.23814328,0,0,0.23814328,139.03488,190.941)">
    <path
       style="fill:#fec007"
       d="m 344.95,96.452 c 0,-49.126 -39.824,-88.951 -88.951,-88.951 -49.127,0 -88.951,39.824 -88.951,88.951 0,39.627 25.916,73.196 61.721,84.698 L 256,226.158 283.229,181.15 c 35.806,-11.502 61.721,-45.071 61.721,-84.698 z"
       id="path14341" />
    <circle
       style="fill:#e5e4d3"
       cx="269.72198"
       cy="80.361"
       r="32.240002"
       id="circle14343" />
    <polygon
       style="fill:#e21717"
       points="76.502,447.087 76.502,256.949 256.001,314.367 256.001,504.504 "
       id="polygon14345" />
    <polygon
       style="fill:#c1bfa4"
       points="76.502,409.812 76.502,219.675 256.001,277.093 256.001,467.23 "
       id="polygon14347" />
    <polygon
       style="fill:#a09d80"
       points="100.034,227.202 76.502,219.675 76.502,409.812 256.001,467.23 256.001,439.994 100.034,390.103 "
       id="polygon14349" />
    <polygon
       style="fill:#e5e4d3"
       points="96.982,372.019 96.982,203.576 256.001,254.443 256.001,422.886 "
       id="polygon14351" />
    <polygon
       style="fill:#e21717"
       points="435.499,447.087 435.499,256.949 256.001,314.367 256.001,504.504 "
       id="polygon14353" />
    <polygon
       style="fill:#c1bfa4"
       points="435.499,409.812 435.499,219.675 256.001,277.093 256.001,467.23 "
       id="polygon14355" />
    <polygon
       style="fill:#a09d80"
       points="411.967,227.202 435.499,219.675 435.499,409.812 256.001,467.23 256.001,439.994 411.967,390.103 "
       id="polygon14357" />
    <g
       id="g14363">
      <polygon
         style="fill:#e5e4d3"
         points="415.019,372.019 415.019,203.576 256.001,254.443 256.001,422.886 "
         id="polygon14359" />
      <polygon
         style="fill:#e5e4d3"
         points="391.166,211.206 415.019,203.576 415.019,372.019 256.001,422.886 256.001,392.397 391.166,349.161 "
         id="polygon14361" />
    </g>
    <polygon
       style="fill:#fec007"
       points="350.92,301.235 350.92,259.013 311.06,271.763 311.06,313.985 "
       id="polygon14365" />
    <path
       d="m 166.801,99.72 c 4.175,0.198 7.648,-3.004 7.843,-7.142 2.033,-43.5 37.77,-77.576 81.356,-77.576 44.912,0 81.45,36.538 81.45,81.45 0,35.531 -22.712,66.699 -56.515,77.558 -1.723,0.553 -3.187,1.71 -4.123,3.258 L 256,211.669 235.187,177.268 c -0.937,-1.548 -2.4,-2.705 -4.123,-3.258 -25.635,-8.234 -45.507,-28.558 -53.159,-54.365 -1.178,-3.972 -5.354,-6.237 -9.322,-5.059 -3.972,1.177 -6.236,5.351 -5.059,9.322 8.791,29.649 31.202,53.186 60.248,63.47 l 25.811,42.662 c 1.358,2.246 3.792,3.618 6.417,3.618 2.625,0 5.059,-1.372 6.417,-3.618 l 25.81,-42.662 C 326.759,173.753 352.451,137.568 352.451,96.45 352.451,43.267 309.183,0 256.001,0 204.388,0 162.069,40.356 159.66,91.877 c -0.194,4.139 3.004,7.649 7.141,7.843 z"
       id="path14367" />
    <path
       d="m 204.732,145.353 c 1.465,1.464 3.385,2.197 5.304,2.197 1.919,0 3.839,-0.732 5.304,-2.197 l 32.098,-32.098 c 6.703,4.545 14.493,6.826 22.287,6.826 10.177,0 20.354,-3.874 28.101,-11.621 15.493,-15.494 15.493,-40.705 0,-56.198 -15.494,-15.493 -40.706,-15.495 -56.2,0 -13.68,13.68 -15.272,34.932 -4.794,50.386 l -32.098,32.098 c -2.931,2.929 -2.931,7.678 -0.002,10.607 z m 47.501,-82.486 c 4.822,-4.823 11.157,-7.234 17.492,-7.234 6.336,0 12.671,2.412 17.493,7.234 9.646,9.646 9.646,25.34 0,34.985 -9.645,9.645 -25.341,9.646 -34.985,0 -9.645,-9.644 -9.645,-25.339 0,-34.985 z"
       id="path14369" />
    <path
       d="m 146.473,272.816 67.023,20.845 c 0.742,0.23 1.492,0.34 2.229,0.34 3.197,0 6.16,-2.061 7.16,-5.274 1.229,-3.956 -0.979,-8.159 -4.935,-9.389 l -67.023,-20.845 c -3.96,-1.231 -8.159,0.979 -9.39,4.934 -1.228,3.955 0.981,8.159 4.936,9.389 z"
       id="path14371" />
    <path
       d="m 146.473,299.39 67.023,20.845 c 0.742,0.23 1.492,0.34 2.229,0.34 3.197,0 6.16,-2.061 7.16,-5.274 1.229,-3.956 -0.979,-8.159 -4.935,-9.389 l -67.023,-20.845 c -3.96,-1.229 -8.159,0.979 -9.39,4.934 -1.228,3.955 0.981,8.159 4.936,9.389 z"
       id="path14373" />
    <path
       d="m 146.473,325.964 67.023,20.845 c 0.742,0.23 1.492,0.34 2.229,0.34 3.197,0 6.16,-2.061 7.16,-5.274 1.229,-3.956 -0.979,-8.159 -4.935,-9.389 l -67.023,-20.845 c -3.96,-1.229 -8.159,0.98 -9.39,4.934 -1.228,3.955 0.981,8.159 4.936,9.389 z"
       id="path14375" />
    <path
       d="m 439.923,213.614 c -1.933,-1.411 -4.425,-1.816 -6.707,-1.086 l -10.697,3.421 v -12.373 c 0,-2.395 -1.144,-4.646 -3.078,-6.058 -1.934,-1.412 -4.424,-1.816 -6.707,-1.086 l -156.733,50.135 -95.275,-30.476 c -3.94,-1.262 -8.166,0.913 -9.429,4.858 -1.262,3.945 0.913,8.167 4.858,9.429 l 92.346,29.539 v 17.174 37.27 98.251 L 104.482,366.544 V 213.85 l 22.125,7.078 c 3.943,1.262 8.166,-0.913 9.429,-4.858 1.262,-3.945 -0.913,-8.167 -4.858,-9.429 l -31.91,-10.208 c -2.283,-0.73 -4.774,-0.326 -6.707,1.086 -1.935,1.412 -3.078,3.663 -3.078,6.058 v 12.373 l -10.697,-3.421 c -2.282,-0.73 -4.773,-0.325 -6.707,1.086 -1.935,1.412 -3.078,3.663 -3.078,6.058 v 37.28 152.861 37.27 c 0,3.262 2.108,6.149 5.215,7.144 l 179.501,57.42 c 1.474,0.472 3.096,0.471 4.57,0 l 92.231,-29.5 c 3.945,-1.262 6.12,-5.483 4.858,-9.428 -1.262,-3.945 -5.483,-6.12 -9.429,-4.859 l -82.445,26.371 V 472.71 l 164.501,-52.622 v 21.521 l -52.516,16.802 c -3.945,1.262 -6.12,5.483 -4.858,9.428 1.02,3.186 3.968,5.217 7.142,5.217 0.757,0 1.527,-0.116 2.287,-0.358 l 57.73,-18.47 c 3.106,-0.994 5.215,-3.882 5.215,-7.144 v -37.27 -152.861 -37.28 c -10e-4,-2.396 -1.145,-4.647 -3.08,-6.059 -1.932,-1.411 1.935,1.412 0,0 -1.932,-1.411 1.935,1.412 0,0 z M 263.501,314.363 v -37.27 -17.174 L 407.52,213.85 V 366.545 L 263.501,412.613 Z M 84,229.945 l 5.482,1.754 V 372.02 c 0,3.262 2.108,6.149 5.215,7.144 l 153.804,49.198 V 456.96 L 84,404.338 V 256.953 c 0,0 0,-27.008 0,-27.008 z m 0,190.142 164.501,52.622 V 494.23 L 84,441.609 c 0,0 0,-21.522 0,-21.522 z m 179.501,36.874 v -28.598 l 153.804,-49.198 c 3.106,-0.994 5.215,-3.882 5.215,-7.144 V 231.699 l 5.482,-1.754 v 27.007 147.386 z"
       id="path14377" />
    <path
       d="m 355.341,252.954 c -1.933,-1.412 -4.424,-1.816 -6.707,-1.086 l -39.859,12.75 c -3.106,0.994 -5.215,3.882 -5.215,7.144 v 42.222 c 0,2.395 1.144,4.646 3.078,6.058 1.3,0.949 2.852,1.442 4.423,1.442 0.766,0 1.536,-0.117 2.284,-0.356 l 39.859,-12.75 c 3.106,-0.994 5.215,-3.882 5.215,-7.144 v -42.222 c 0.001,-2.395 -1.143,-4.646 -3.078,-6.058 z m -11.921,42.806 -24.859,7.952 v -26.474 l 24.859,-7.952 z"
       id="path14379" />
    <g
       id="g14381" />
    <g
       id="g14383" />
    <g
       id="g14385" />
    <g
       id="g14387" />
    <g
       id="g14389" />
    <g
       id="g14391" />
    <g
       id="g14393" />
    <g
       id="g14395" />
    <g
       id="g14397" />
    <g
       id="g14399" />
    <g
       id="g14401" />
    <g
       id="g14403" />
    <g
       id="g14405" />
    <g
       id="g14407" />
    <g
       id="g14409" />
  </g>
</svg>
