<svg viewBox="-14 0 512 512" xmlns="http://www.w3.org/2000/svg"><path d="m90.332031 377.230469c-24.539062 0-44.433593 19.894531-44.433593 44.4375 0 24.539062 19.894531 44.433593 44.433593 44.433593h363.683594v-88.871093zm0 0" fill="#efedee"/><path d="m80.191406 421.667969c0-24.542969 19.894532-44.4375 44.4375-44.4375h-34.296875c-24.539062 0-44.433593 19.894531-44.433593 44.4375 0 24.539062 19.894531 44.433593 44.433593 44.433593h34.296875c-24.542968 0-44.4375-19.894531-44.4375-44.433593zm0 0" fill="#d9d7d8"/><path d="m90.332031 377.230469h367.355469c10.605469 0 19.199219-8.59375 19.199219-19.199219 0-10.601562-8.59375-19.195312-19.199219-19.195312h-373.171875c-42.535156 0-77.015625 34.476562-77.015625 77.011718v11.636719c0 42.535156 34.480469 77.015625 77.015625 77.015625h373.171875c10.605469 0 19.199219-8.597656 19.199219-19.199219 0-10.601562-8.59375-19.199219-19.199219-19.199219h-367.355469c-24.539062 0-44.433593-19.894531-44.433593-44.433593 0-24.542969 19.894531-44.4375 44.433593-44.4375zm0 0" fill="#fd6f71"/><path d="m128.953125 211.566406c-24.539063 0-44.433594 19.894532-44.433594 44.433594s19.894531 44.433594 44.433594 44.433594h286.4375v-88.867188zm0 0" fill="#efedee"/><path d="m118.8125 256c0-24.539062 19.894531-44.433594 44.4375-44.433594h-34.296875c-24.539063 0-44.433594 19.894532-44.433594 44.433594s19.894531 44.433594 44.433594 44.433594h34.296875c-24.542969 0-44.4375-19.894532-44.4375-44.433594zm0 0" fill="#d9d7d8"/><path d="m128.953125 211.566406h290.113281c10.605469 0 19.199219-8.597656 19.199219-19.199218 0-10.605469-8.59375-19.199219-19.199219-19.199219h-295.929687c-42.535157 0-77.015625 34.480469-77.015625 77.011719v11.640624c0 42.53125 34.480468 77.011719 77.015625 77.011719h295.929687c10.605469 0 19.199219-8.59375 19.199219-19.199219 0-10.601562-8.59375-19.199218-19.199219-19.199218h-290.113281c-24.539063 0-44.433594-19.894532-44.433594-44.433594s19.894531-44.433594 44.433594-44.433594zm0 0" fill="#58b78c"/><path d="m173.09375 45.898438c-24.539062 0-44.433594 19.894531-44.433594 44.433593 0 24.542969 19.894532 44.4375 44.433594 44.4375h198.160156v-88.871093zm0 0" fill="#efedee"/><path d="m162.953125 90.332031c0-24.539062 19.894531-44.433593 44.4375-44.433593h-34.296875c-24.539062 0-44.433594 19.894531-44.433594 44.433593 0 24.542969 19.894532 44.4375 44.433594 44.4375h34.296875c-24.542969 0-44.4375-19.894531-44.4375-44.4375zm0 0" fill="#d9d7d8"/><path d="m173.09375 45.898438h201.835938c10.601562 0 19.199218-8.597657 19.199218-19.199219 0-10.601563-8.597656-19.199219-19.199218-19.199219h-207.65625c-42.53125 0-77.011719 34.480469-77.011719 77.015625v11.636719c0 42.535156 34.480469 77.011718 77.011719 77.011718h207.652343c10.605469 0 19.199219-8.59375 19.199219-19.195312 0-10.605469-8.59375-19.199219-19.199219-19.199219h-201.832031c-24.539062 0-44.433594-19.894531-44.433594-44.4375 0-24.539062 19.894532-44.433593 44.433594-44.433593zm0 0" fill="#fadc60"/><path d="m461.515625 458.878906v-74.425781c12.914063-1.863281 22.871094-13 22.871094-26.421875 0-14.722656-11.976563-26.699219-26.699219-26.699219h-14.628906c1.730468-3.535156 2.707031-7.503906 2.707031-11.699219 0-13.421874-9.957031-24.558593-22.875-26.417968v-74.429688c12.917969-1.859375 22.875-12.996094 22.875-26.421875 0-14.71875-11.976563-26.695312-26.699219-26.695312h-20.144531c1.730469-3.535157 2.707031-7.507813 2.707031-11.699219 0-13.421875-9.960937-24.558594-22.875-26.421875v-74.425781c12.914063-1.863282 22.875-13 22.875-26.421875 0-14.722657-11.980468-26.699219-26.703125-26.699219h-207.652343c-46.597657 0-84.511719 37.914062-84.511719 84.515625v11.636719c0 28.847656 14.535156 54.351562 36.660156 69.609375-44.886719 1.953125-80.800781 39.066406-80.800781 84.417969v11.640624c0 29.066407 14.753906 54.75 37.160156 69.964844-42.511719 4.382813-75.78125 40.410156-75.78125 84.0625v11.636719c0 46.601563 37.914062 84.515625 84.515625 84.515625h373.171875c14.722656 0 26.699219-11.976562 26.699219-26.699219 0-13.421875-9.957031-24.558593-22.871094-26.421875zm-371.183594-.277344c-17.796875 0-32.691406-12.652343-36.167969-29.433593h392.351563v29.433593zm356.183594-44.433593h-392.351563c3.476563-16.78125 18.371094-29.4375 36.167969-29.4375h356.183594zm-317.5625-121.230469c-17.796875 0-32.691406-12.65625-36.167969-29.4375h315.105469v29.4375zm278.9375-44.4375h-315.105469c3.476563-16.78125 18.371094-29.4375 36.167969-29.4375h278.941406v29.4375zm-234.796875-121.230469c-17.796875 0-32.691406-12.652343-36.167969-29.4375h226.828125v29.4375zm190.660156-44.4375h-226.828125c3.476563-16.78125 18.371094-29.433593 36.167969-29.433593h190.660156zm93.933594 414.167969h-373.171875c-38.332031 0-69.515625-31.183594-69.515625-69.515625v-11.636719c0-38.332031 31.183594-69.515625 69.515625-69.515625h74.191406c4.144531 0 7.5-3.355469 7.5-7.5s-3.355469-7.5-7.5-7.5h-35.570312c-38.332031 0-69.515625-31.183593-69.515625-69.515625v-11.636718c0-38.332032 31.183594-69.515626 69.515625-69.515626h199.074219c4.140624 0 7.5-3.355468 7.5-7.5 0-4.140624-3.359376-7.5-7.5-7.5h-154.9375c-38.328126 0-69.511719-31.183593-69.511719-69.515624v-11.632813c0-38.332031 31.183593-69.515625 69.511719-69.515625h207.652343c6.453125 0 11.699219 5.246094 11.699219 11.699219 0 6.449219-5.246094 11.699219-11.699219 11.699219h-201.832031c-28.636719 0-51.933594 23.296874-51.933594 51.933593 0 28.640625 23.296875 51.9375 51.933594 51.9375h201.832031c6.453125 0 11.699219 5.246094 11.699219 11.699219 0 6.449219-5.246094 11.699219-11.699219 11.699219h-24.714843c-4.144532 0-7.5 3.355469-7.5 7.5 0 4.140625 3.355468 7.5 7.5 7.5h68.855468c6.449219 0 11.699219 5.246093 11.699219 11.699219 0 6.449218-5.25 11.695312-11.699219 11.695312h-290.113281c-28.636719 0-51.933594 23.300781-51.933594 51.9375s23.296875 51.9375 51.933594 51.9375h290.113281c6.453125 0 11.699219 5.246094 11.699219 11.699219 0 6.449219-5.246094 11.695312-11.699219 11.695312h-232.355468c-4.144532 0-7.5 3.359375-7.5 7.5 0 4.144531 3.355468 7.5 7.5 7.5h270.976562c6.453125 0 11.699219 5.25 11.699219 11.699219 0 6.453125-5.246094 11.699219-11.699219 11.699219h-367.355469c-28.636719 0-51.933593 23.296875-51.933593 51.9375 0 28.636719 23.296874 51.933593 51.933593 51.933593h367.355469c6.453125 0 11.699219 5.25 11.699219 11.699219 0 6.453125-5.246094 11.699219-11.699219 11.699219zm0 0"/></svg>