<?xml version="1.0" encoding="iso-8859-1"?>
<!-- Generator: Adobe Illustrator 19.0.0, SVG Export Plug-In . SVG Version: 6.00 Build 0)  -->
<svg version="1.1" id="Capa_1" xmlns="http://www.w3.org/2000/svg" xmlns:xlink="http://www.w3.org/1999/xlink" x="0px" y="0px"
	 viewBox="0 0 512 512" style="enable-background:new 0 0 512 512;" xml:space="preserve">
<path style="fill:#00A5E8;" d="M503.169,147.787l-51-23.011c-4.642-2.096-10.03-1.69-14.307,1.072
	c-4.278,2.764-6.862,7.508-6.862,12.601v199.387c-24.975-8.352-52.225-12.709-80-12.709c-33.446,0-66.135,6.319-95,18.322
	c-28.865-12.003-61.554-18.322-95-18.322c-27.775,0-55.025,4.357-80,12.709V138.449c0-5.093-2.584-9.837-6.862-12.601
	c-4.277-2.762-9.665-3.167-14.307-1.072l-51,23.011C3.456,150.213,0,155.562,0,161.46v260.399c0,8.53,4.278,16.385,11.444,21.011
	c7.062,4.56,15.971,5.333,23.835,1.782l56.818-25.639c20.15-9.09,43.839-13.894,68.503-13.894c39.779,0,64.749,11.883,79.667,18.982
	c4.034,1.92,7.519,3.578,10.676,4.709c3.27,1.17,6.844,1.17,10.114,0c3.219-1.153,6.753-2.831,10.845-4.773
	c14.902-7.076,39.843-18.918,79.498-18.918c24.664,0,48.352,4.804,68.5,13.893l56.815,25.637c7.767,3.507,16.68,2.844,23.84-1.779
	c7.166-4.626,11.444-12.48,11.444-21.011V161.46C512,155.562,508.544,150.213,503.169,147.787z"/>
<path style="fill:#0096DC;" d="M503.169,147.787l-51-23.011c-4.642-2.096-10.03-1.69-14.307,1.072
	c-4.278,2.764-6.862,7.508-6.862,12.601v199.387c-24.975-8.352-52.225-12.709-80-12.709c-33.446,0-66.135,6.319-95,18.322v86.24
	c1.711,0,3.422-0.292,5.058-0.877c3.219-1.153,6.753-2.831,10.845-4.773c14.902-7.076,39.843-18.918,79.498-18.918
	c24.664,0,48.352,4.804,68.5,13.893l56.815,25.637c7.767,3.507,16.68,2.844,23.84-1.779c7.166-4.626,11.444-12.48,11.444-21.011
	V161.46C512,155.562,508.544,150.213,503.169,147.787z"/>
<path style="fill:#ECEDF8;" d="M461,99.802v260c0,5.09-2.59,9.84-6.87,12.6c-4.281,2.768-9.679,3.169-14.32,1.06
	c-51.06-23.13-116.24-24.37-168.81-3.72c-2.98,1.17-5.92,2.41-8.81,3.72c-3.93,1.78-8.45,1.78-12.38,0
	c-2.89-1.31-5.83-2.55-8.81-3.72c-52.57-20.65-117.75-19.41-168.81,3.72c-4.64,2.1-10.04,1.71-14.32-1.06
	c-4.28-2.76-6.87-7.51-6.87-12.6v-260c0-5.89,3.45-11.24,8.81-13.67c30.34-13.74,65.33-21.01,101.19-21.01
	c27.78,0,55.03,4.36,80,12.72c5.1,1.7,10.11,3.57,15,5.61c4.89-2.04,9.9-3.91,15-5.61c24.97-8.36,52.22-12.72,80-12.72
	c35.86,0,70.85,7.27,101.19,21.01C457.55,88.562,461,93.912,461,99.802z"/>
<g>
	<path style="fill:#D6D8F6;" d="M452.19,86.132c-30.34-13.74-65.33-21.01-101.19-21.01c-27.78,0-55.03,4.36-80,12.72
		c-5.1,1.7-10.11,3.57-15,5.61v291.345c2.113,0,4.225-0.445,6.19-1.335c2.89-1.31,5.83-2.55,8.81-3.72
		c52.57-20.65,117.75-19.41,168.81,3.72c4.641,2.109,10.039,1.708,14.32-1.06c4.28-2.76,6.87-7.51,6.87-12.6v-260
		C461,93.912,457.55,88.562,452.19,86.132z"/>
	<path style="fill:#D6D8F6;" d="M271,77.842v291.9c-2.98,1.17-5.92,2.41-8.81,3.72c-3.93,1.78-8.45,1.78-12.38,0
		c-2.89-1.31-5.83-2.55-8.81-3.72v-291.9C241,77.842,271,77.842,271,77.842z"/>
</g>
<path style="fill:#BFC4F3;" d="M256,77.842v296.955c2.113,0,4.225-0.445,6.19-1.335c2.89-1.31,5.83-2.55,8.81-3.72v-291.9
	C271,77.842,256,77.842,256,77.842z"/>
<g>
</g>
<g>
</g>
<g>
</g>
<g>
</g>
<g>
</g>
<g>
</g>
<g>
</g>
<g>
</g>
<g>
</g>
<g>
</g>
<g>
</g>
<g>
</g>
<g>
</g>
<g>
</g>
<g>
</g>
</svg>
