<?xml version="1.0" encoding="UTF-8" standalone="no"?>
<svg
   xmlns:dc="http://purl.org/dc/elements/1.1/"
   xmlns:cc="http://creativecommons.org/ns#"
   xmlns:rdf="http://www.w3.org/1999/02/22-rdf-syntax-ns#"
   xmlns:svg="http://www.w3.org/2000/svg"
   xmlns="http://www.w3.org/2000/svg"
   xmlns:sodipodi="http://sodipodi.sourceforge.net/DTD/sodipodi-0.dtd"
   xmlns:inkscape="http://www.inkscape.org/namespaces/inkscape"
   version="1.1"
   x="0px"
   y="0px"
   viewBox="0 0 71.402 63.633999"
   enable-background="new 0 0 100 100"
   xml:space="preserve"
   id="svg2"
   inkscape:version="0.91 r13725"
   sodipodi:docname="noun_24074_cc.svg"
   width="71.402"
   height="63.633999"><metadata
     id="metadata34"><rdf:RDF><cc:Work
         rdf:about=""><dc:format>image/svg+xml</dc:format><dc:type
           rdf:resource="http://purl.org/dc/dcmitype/StillImage" /><dc:title></dc:title></cc:Work></rdf:RDF></metadata><defs
     id="defs32" /><sodipodi:namedview
     pagecolor="#ffffff"
     bordercolor="#666666"
     borderopacity="1"
     objecttolerance="10"
     gridtolerance="10"
     guidetolerance="10"
     inkscape:pageopacity="0"
     inkscape:pageshadow="2"
     inkscape:window-width="2560"
     inkscape:window-height="1326"
     id="namedview30"
     showgrid="false"
     fit-margin-top="0"
     fit-margin-left="0"
     fit-margin-right="0"
     fit-margin-bottom="0"
     inkscape:zoom="7.552"
     inkscape:cx="-18.655335"
     inkscape:cy="17.41776"
     inkscape:window-x="0"
     inkscape:window-y="54"
     inkscape:window-maximized="1"
     inkscape:current-layer="svg2" /><g
     id="g4"
     transform="translate(-14.467,-17.909)"><g
       id="g6"><path
         d="m 42.124,62.716 -7.096,-18.236 -2.092,0 -7.295,18.236 c -0.339,0.077 -0.684,0.185 -1.032,0.325 -0.349,0.142 -0.674,0.308 -0.975,0.495 l 0,1.075 6.984,0 0,-1.075 c -0.774,-0.433 -1.593,-0.707 -2.46,-0.82 l 1.668,-4.495 6.277,0 1.639,4.495 c -0.377,0.077 -0.772,0.189 -1.187,0.34 -0.416,0.15 -0.803,0.31 -1.159,0.48 l 0,1.075 8.848,0 0,-1.075 c -0.282,-0.187 -0.612,-0.353 -0.988,-0.495 -0.378,-0.14 -0.755,-0.248 -1.132,-0.325 z m -11.62,-6.333 1.951,-5.343 0.622,-2.488 0.056,0 0.537,2.431 1.838,5.4 -5.004,0 z"
         id="path8"
         inkscape:connector-curvature="0" /><path
         d="m 83.067,17.909 -35,0 c -1.544,0 -2.8,1.256 -2.8,2.8 l 0,14.026 -29.4,0 c -0.773,0 -1.4,0.626 -1.4,1.4 l 0,36.374 c 0,0.774 0.627,1.4 1.4,1.4 l 12.6,0 0,6.234 c 0,0.535 0.305,1.023 0.785,1.258 0.195,0.096 0.405,0.142 0.615,0.142 0.306,0 0.61,-0.1 0.861,-0.295 l 9.421,-7.339 13.519,0 c 0.773,0 1.4,-0.626 1.4,-1.4 l 0,-15.4 3.038,0 c 0.451,0 1.27,0.286 1.624,0.567 l 7.373,5.865 c 0.454,0.361 0.954,0.551 1.446,0.551 0.954,0 1.92,-0.748 1.92,-2.177 l 0,-4.807 12.6,0 c 1.544,0 2.8,-1.256 2.8,-2.8 l 0,-33.6 c -0.002,-1.542 -1.258,-2.799 -2.802,-2.799 z m -30.8,53.2 -12.6,0 c -0.312,0 -0.615,0.104 -0.861,0.295 l -7.539,5.873 0,-4.769 c 0,-0.774 -0.627,-1.4 -1.4,-1.4 l -12.6,0 0,-33.573 28,0 0,16.774 c 0,1.544 1.256,2.8 2.8,2.8 l 4.2,0 0,14 z m 30.8,-16.8 -12.6,0 c -1.544,0 -2.8,1.256 -2.8,2.8 l -0.001,3.304 -6.194,-4.927 C 60.616,54.804 59.2,54.309 58.105,54.309 l -10.038,0 0,-33.6 35,0 0,33.6 z"
         id="path10"
         inkscape:connector-curvature="0" /><path
         d="m 54.237,50.019 1.57,0 0,-1.25 6.117,0 0,-7.819 -7.686,0 0,9.069 z m 1.569,-7.554 4.521,0 0,4.788 -4.521,0 0,-4.788 z"
         id="path12"
         inkscape:connector-curvature="0" /><rect
         x="53.013"
         y="29.886"
         width="9.7620001"
         height="1.516"
         id="rect14" /><rect
         x="54.423"
         y="26.296"
         width="7.3400002"
         height="1.4630001"
         id="rect16" /><path
         d="m 64.956,50.072 1.702,0 0,-1.224 7.766,0 0,1.064 1.729,0 0,-9.521 -11.197,0 0,9.681 z m 1.702,-8.058 7.766,0 0,5.186 -7.766,0 0,-5.186 z"
         id="path18"
         inkscape:connector-curvature="0" /><path
         d="m 78.014,36.562 -2.659,0 0,-5.612 -6.063,0 0.451,-2.979 7.288,0 0,-1.596 -13.22,0 0,1.596 4.203,0 c -0.16,0.931 -0.319,1.969 -0.479,2.979 l -3.192,0 0,1.596 2.926,0 c -0.265,1.463 -0.532,2.846 -0.771,4.017 l -3.644,0 0,1.621 15.159,0 0,-1.622 z m -4.388,0 -5.347,0 c 0.241,-1.17 0.506,-2.58 0.745,-4.017 l 4.602,0 0,4.017 z"
         id="path20"
         inkscape:connector-curvature="0" /><rect
         x="54.264"
         y="33.609001"
         width="7.5799999"
         height="1.4630001"
         id="rect22" /><rect
         x="54.264"
         y="37.279999"
         width="7.5799999"
         height="1.4630001"
         id="rect24" /></g></g></svg>