<?xml version="1.0" encoding="UTF-8" standalone="no"?>
<!-- Created with Inkscape (http://www.inkscape.org/) -->

<svg
   xmlns:dc="http://purl.org/dc/elements/1.1/"
   xmlns:cc="http://creativecommons.org/ns#"
   xmlns:rdf="http://www.w3.org/1999/02/22-rdf-syntax-ns#"
   xmlns:svg="http://www.w3.org/2000/svg"
   xmlns="http://www.w3.org/2000/svg"
   xmlns:xlink="http://www.w3.org/1999/xlink"
   xmlns:sodipodi="http://sodipodi.sourceforge.net/DTD/sodipodi-0.dtd"
   xmlns:inkscape="http://www.inkscape.org/namespaces/inkscape"
   height="1080"
   id="svg2383"
   inkscape:output_extension="org.inkscape.output.svg.inkscape"
   inkscape:version="0.92.4 (5da689c313, 2019-01-14)"
   sodipodi:docname="logo2.svg"
   sodipodi:version="0.32"
   version="1.0"
   width="1920">
  <defs
     id="defs2385">
    <linearGradient
       id="linearGradient3183"
       inkscape:collect="always">
      <stop
         id="stop3185"
         offset="0"
         style="stop-color:#ffffff;stop-opacity:0.79166667" />
      <stop
         id="stop3187"
         offset="1"
         style="stop-color:#ffffff;stop-opacity:0.22083333" />
    </linearGradient>
    <linearGradient
       id="linearGradient3182"
       inkscape:collect="always">
      <stop
         id="stop3184"
         offset="0"
         style="stop-color:#ffffff;stop-opacity:0.55" />
      <stop
         id="stop3186"
         offset="1"
         style="stop-color:#ffffff;stop-opacity:0;" />
    </linearGradient>
    <linearGradient
       id="linearGradient3174"
       inkscape:collect="always">
      <stop
         id="stop3176"
         offset="0"
         style="stop-color:#324da7;stop-opacity:0.55" />
      <stop
         id="stop3178"
         offset="1"
         style="stop-color:#324da7;stop-opacity:0;" />
    </linearGradient>
    <linearGradient
       id="linearGradient3190"
       inkscape:collect="always">
      <stop
         id="stop3192"
         offset="0"
         style="stop-color:#324da7;stop-opacity:1" />
      <stop
         id="stop3194"
         offset="1"
         style="stop-color:#324da7;stop-opacity:0;" />
    </linearGradient>
    <linearGradient
       id="linearGradient3267"
       inkscape:collect="always">
      <stop
         id="stop3269"
         offset="0"
         style="stop-color:#0000ff;stop-opacity:0" />
      <stop
         id="stop3275"
         offset="0.48768985"
         style="stop-color:#ffffff;stop-opacity:1" />
      <stop
         id="stop3271"
         offset="1"
         style="stop-color:#0000ff;stop-opacity:0;" />
    </linearGradient>
    <inkscape:perspective
       id="perspective2391"
       inkscape:persp3d-origin="372.04724 : 350.78739 : 1"
       inkscape:vp_x="0 : 526.18109 : 1"
       inkscape:vp_y="0 : 1000 : 0"
       inkscape:vp_z="744.09448 : 526.18109 : 1"
       sodipodi:type="inkscape:persp3d" />
    <linearGradient
       gradientTransform="matrix(0.4475832,0,0,1.1594093,-317.72844,-354.23847)"
       gradientUnits="userSpaceOnUse"
       id="linearGradient3273"
       inkscape:collect="always"
       x1="333.26617"
       x2="1668.8561"
       xlink:href="#linearGradient3267"
       y1="671.26709"
       y2="671.26709" />
    <linearGradient
       gradientTransform="matrix(0.4475832,0,0,1.1594093,-317.72845,-255.93349)"
       gradientUnits="userSpaceOnUse"
       id="linearGradient3463"
       inkscape:collect="always"
       x1="333.26617"
       x2="1668.8561"
       xlink:href="#linearGradient3267"
       y1="671.26709"
       y2="671.26709" />
    <linearGradient
       gradientTransform="translate(-480.00173,0)"
       gradientUnits="userSpaceOnUse"
       id="linearGradient3196"
       inkscape:collect="always"
       x1="1917.6716"
       x2="1622.8263"
       xlink:href="#linearGradient3190"
       y1="542.59882"
       y2="542.59882" />
    <linearGradient
       gradientTransform="matrix(-1,0,0,1,1920.0025,7.77e-2)"
       gradientUnits="userSpaceOnUse"
       id="linearGradient3200"
       inkscape:collect="always"
       x1="1917.6716"
       x2="1622.8263"
       xlink:href="#linearGradient3190"
       y1="542.59882"
       y2="542.59882" />
    <linearGradient
       gradientUnits="userSpaceOnUse"
       id="linearGradient3180"
       inkscape:collect="always"
       x1="513.01154"
       x2="513.01154"
       xlink:href="#linearGradient3174"
       y1="-540.84637"
       y2="-636.17462" />
    <linearGradient
       gradientUnits="userSpaceOnUse"
       id="linearGradient3188"
       inkscape:collect="always"
       x1="719.99805"
       x2="719.99805"
       xlink:href="#linearGradient3182"
       y1="-540.84637"
       y2="-631.5105" />
    <linearGradient
       gradientUnits="userSpaceOnUse"
       id="linearGradient3197"
       inkscape:collect="always"
       x1="513.01154"
       x2="513.01154"
       xlink:href="#linearGradient3174"
       y1="-540.84637"
       y2="-636.17462" />
    <linearGradient
       gradientUnits="userSpaceOnUse"
       id="linearGradient3199"
       inkscape:collect="always"
       x1="719.99805"
       x2="719.99805"
       xlink:href="#linearGradient3182"
       y1="-540.84637"
       y2="-631.5105" />
    <linearGradient
       gradientTransform="matrix(1,0,0,0.9178961,-1.9328e-3,35.022451)"
       gradientUnits="userSpaceOnUse"
       id="linearGradient3189"
       inkscape:collect="always"
       x1="166.46875"
       x2="166.46875"
       xlink:href="#linearGradient3183"
       y1="426.5625"
       y2="511.38623" />
    <linearGradient
       gradientTransform="translate(-0.9999615,-5.707886)"
       gradientUnits="userSpaceOnUse"
       id="linearGradient3193"
       inkscape:collect="always"
       x1="513.01154"
       x2="513.01154"
       xlink:href="#linearGradient3174"
       y1="-540.84637"
       y2="-636.17462" />
    <linearGradient
       gradientTransform="translate(-0.9999615,-5.707886)"
       gradientUnits="userSpaceOnUse"
       id="linearGradient3195"
       inkscape:collect="always"
       x1="719.99805"
       x2="719.99805"
       xlink:href="#linearGradient3182"
       y1="-540.84637"
       y2="-631.5105" />
    <linearGradient
       gradientTransform="matrix(1,0,0,0.9178961,-1.9328e-3,35.022451)"
       gradientUnits="userSpaceOnUse"
       id="linearGradient2421"
       inkscape:collect="always"
       x1="166.46875"
       x2="166.46875"
       xlink:href="#linearGradient3183"
       y1="426.5625"
       y2="511.38623" />
    <linearGradient
       gradientTransform="translate(-0.9999615,-5.707886)"
       gradientUnits="userSpaceOnUse"
       id="linearGradient2423"
       inkscape:collect="always"
       x1="513.01154"
       x2="513.01154"
       xlink:href="#linearGradient3174"
       y1="-540.84637"
       y2="-636.17462" />
    <linearGradient
       gradientTransform="translate(-0.9999615,-5.707886)"
       gradientUnits="userSpaceOnUse"
       id="linearGradient2425"
       inkscape:collect="always"
       x1="719.99805"
       x2="719.99805"
       xlink:href="#linearGradient3182"
       y1="-540.84637"
       y2="-631.5105" />
    <linearGradient
       gradientTransform="translate(240,-5.707886)"
       gradientUnits="userSpaceOnUse"
       id="linearGradient2431"
       inkscape:collect="always"
       x1="513.01154"
       x2="513.01154"
       xlink:href="#linearGradient3174"
       y1="-540.84637"
       y2="-636.17462" />
    <linearGradient
       gradientTransform="translate(240,-5.707886)"
       gradientUnits="userSpaceOnUse"
       id="linearGradient2433"
       inkscape:collect="always"
       x1="719.99805"
       x2="719.99805"
       xlink:href="#linearGradient3182"
       y1="-540.84637"
       y2="-631.5105" />
    <linearGradient
       gradientTransform="matrix(1.2912636,0,0,0.9109658,29.824106,38.744546)"
       gradientUnits="userSpaceOnUse"
       id="linearGradient2436"
       inkscape:collect="always"
       x1="166.46875"
       x2="166.46875"
       xlink:href="#linearGradient3183"
       y1="426.5625"
       y2="511.38623" />
    <linearGradient
       gradientTransform="translate(240,-5.707886)"
       gradientUnits="userSpaceOnUse"
       id="linearGradient2449"
       inkscape:collect="always"
       x1="513.01154"
       x2="513.01154"
       xlink:href="#linearGradient3174"
       y1="-540.84637"
       y2="-636.17462" />
    <linearGradient
       gradientTransform="translate(240,-5.707886)"
       gradientUnits="userSpaceOnUse"
       id="linearGradient2451"
       inkscape:collect="always"
       x1="719.99805"
       x2="719.99805"
       xlink:href="#linearGradient3182"
       y1="-540.84637"
       y2="-631.5105" />
    <linearGradient
       gradientTransform="translate(240,-5.707886)"
       gradientUnits="userSpaceOnUse"
       id="linearGradient3033"
       inkscape:collect="always"
       x1="513.01154"
       x2="513.01154"
       xlink:href="#linearGradient3174"
       y1="-540.84637"
       y2="-636.17462" />
    <linearGradient
       gradientTransform="translate(240,-5.707886)"
       gradientUnits="userSpaceOnUse"
       id="linearGradient3035"
       inkscape:collect="always"
       x1="719.99805"
       x2="719.99805"
       xlink:href="#linearGradient3182"
       y1="-540.84637"
       y2="-631.5105" />
    <linearGradient
       gradientTransform="translate(-82.952,-5.707886)"
       gradientUnits="userSpaceOnUse"
       id="linearGradient3041"
       inkscape:collect="always"
       x1="513.01154"
       x2="513.01154"
       xlink:href="#linearGradient3174"
       y1="-540.84637"
       y2="-636.17462" />
    <linearGradient
       gradientTransform="translate(-82.952,-5.707886)"
       gradientUnits="userSpaceOnUse"
       id="linearGradient3043"
       inkscape:collect="always"
       x1="719.99805"
       x2="719.99805"
       xlink:href="#linearGradient3182"
       y1="-540.84637"
       y2="-631.5105" />
    <linearGradient
       gradientTransform="translate(-728.85602,-5.707886)"
       gradientUnits="userSpaceOnUse"
       id="linearGradient3049"
       inkscape:collect="always"
       x1="513.01154"
       x2="513.01154"
       xlink:href="#linearGradient3174"
       y1="-540.84637"
       y2="-636.17462" />
    <linearGradient
       gradientTransform="translate(-728.85602,-5.707886)"
       gradientUnits="userSpaceOnUse"
       id="linearGradient3051"
       inkscape:collect="always"
       x1="719.99805"
       x2="719.99805"
       xlink:href="#linearGradient3182"
       y1="-540.84637"
       y2="-631.5105" />
  </defs>
  <sodipodi:namedview
     bordercolor="#666666"
     borderopacity="1.0"
     gridtolerance="10000"
     guidetolerance="10"
     id="base"
     inkscape:current-layer="layer1"
     inkscape:cx="-214.94741"
     inkscape:cy="1204.735"
     inkscape:document-units="px"
     inkscape:pageopacity="0.0"
     inkscape:pageshadow="2"
     inkscape:window-height="1377"
     inkscape:window-maximized="1"
     inkscape:window-width="2560"
     inkscape:window-x="0"
     inkscape:window-y="0"
     inkscape:zoom="0.25"
     objecttolerance="10"
     pagecolor="#ffffff"
     showgrid="false" />
  <metadata
     id="metadata2388">
    <rdf:RDF>
      <cc:Work
         rdf:about="">
        <dc:format>image/svg+xml</dc:format>
        <dc:type
           rdf:resource="http://purl.org/dc/dcmitype/StillImage" />
      </cc:Work>
    </rdf:RDF>
  </metadata>
  <g
     id="layer1"
     inkscape:groupmode="layer"
     inkscape:label="Layer 1"
     transform="translate(1.9328e-3,0)">
    <rect
       height="1080.0051"
       id="rect3160"
       rx="0"
       ry="0"
       style="opacity:1.0;fill:#0275d8;fill-opacity:1;stroke:none;stroke-width:1;stroke-miterlimit:4;stroke-dasharray:none;stroke-opacity:1"
       width="1920"
       x="-0.0019328"
       y="-0.0051269531" />
    <g
       id="g908"
       transform="translate(31.721121,19.987905)">
      <g
         transform="translate(-32.000003,348)"
         id="g2439">
        <text
           y="-550.28778"
           xml:space="preserve"
           x="962.81793"
           transform="scale(1,-1)"
           style="font-style:normal;font-variant:normal;font-weight:normal;font-stretch:normal;line-height:0%;font-family:Lato;-inkscape-font-specification:'Bitstream Vera Sans';text-align:center;writing-mode:lr-tb;text-anchor:middle;opacity:1;fill:#ffffff;fill-opacity:1;stroke:url(#linearGradient3051);stroke-width:3.75001788;stroke-linecap:butt;stroke-linejoin:miter;stroke-miterlimit:4;stroke-dasharray:none;stroke-dashoffset:0;stroke-opacity:1"
           id="text2400"><tspan
             y="-547.17059"
             x="962.81793"
             style="font-style:normal;font-variant:normal;font-weight:bold;font-stretch:normal;font-size:131.25064087px;line-height:125%;font-family:Lato;-inkscape-font-specification:'Bitstream Vera Sans Bold';text-align:center;writing-mode:lr-tb;text-anchor:middle;fill:#ffffff;fill-opacity:1;stroke:url(#linearGradient3051);stroke-width:3.75001788;stroke-miterlimit:4;stroke-dasharray:none;stroke-opacity:1"
             sodipodi:role="line"
             id="tspan2402" /></text>
        <text
           y="531.71222"
           xml:space="preserve"
           x="962.81787"
           style="font-style:normal;font-variant:normal;font-weight:normal;font-stretch:normal;line-height:0%;font-family:Lato;-inkscape-font-specification:'Bitstream Vera Sans';text-align:center;writing-mode:lr-tb;text-anchor:middle;opacity:1;fill:#ffffff;fill-opacity:1;stroke:#ffffff;stroke-width:3.75001788;stroke-linecap:butt;stroke-linejoin:miter;stroke-miterlimit:4;stroke-dasharray:none;stroke-dashoffset:0;stroke-opacity:1"
           id="text2395"><tspan
             y="531.71222"
             x="962.81787"
             style="font-style:normal;font-variant:normal;font-weight:bold;font-stretch:normal;font-size:131.25064087px;line-height:125%;font-family:Lato;-inkscape-font-specification:'Bitstream Vera Sans Bold';text-align:center;writing-mode:lr-tb;text-anchor:middle;fill:#ffffff;fill-opacity:1;stroke:#ffffff;stroke-width:3.75001788;stroke-miterlimit:4;stroke-dasharray:none;stroke-opacity:1"
             sodipodi:role="line"
             id="tspan2397">Aprelendo</tspan></text>
      </g>
      <g
         transform="matrix(1.0227276,0,0,1.0227276,662.30024,136.45248)"
         id="g845">
        <path
           style="fill:#efedee"
           inkscape:connector-curvature="0"
           id="path2"
           d="m 90.332031,377.23047 c -24.539062,0 -44.433593,19.89453 -44.433593,44.4375 0,24.53906 19.894531,44.43359 44.433593,44.43359 H 454.01562 v -88.87109 z m 0,0" />
        <path
           style="fill:#d9d7d8"
           inkscape:connector-curvature="0"
           id="path4"
           d="m 80.191406,421.66797 c 0,-24.54297 19.894534,-44.4375 44.437504,-44.4375 H 90.332031 c -24.539062,0 -44.433593,19.89453 -44.433593,44.4375 0,24.53906 19.894531,44.43359 44.433593,44.43359 h 34.296879 c -24.54297,0 -44.437504,-19.89453 -44.437504,-44.43359 z m 0,0" />
        <path
           style="fill:#fd6f71"
           inkscape:connector-curvature="0"
           id="path6"
           d="M 90.332031,377.23047 H 457.6875 c 10.60547,0 19.19922,-8.59375 19.19922,-19.19922 0,-10.60156 -8.59375,-19.19531 -19.19922,-19.19531 H 84.515625 C 41.980469,338.83594 7.5,373.3125 7.5,415.84766 v 11.63671 C 7.5,470.01953 41.980469,504.5 84.515625,504.5 H 457.6875 c 10.60547,0 19.19922,-8.59766 19.19922,-19.19922 0,-10.60156 -8.59375,-19.19922 -19.19922,-19.19922 H 90.332031 c -24.539062,0 -44.433593,-19.89453 -44.433593,-44.43359 0,-24.54297 19.894531,-44.4375 44.433593,-44.4375 z m 0,0" />
        <path
           style="fill:#efedee"
           inkscape:connector-curvature="0"
           id="path8"
           d="m 128.95312,211.56641 c -24.53906,0 -44.433589,19.89453 -44.433589,44.43359 0,24.53906 19.894529,44.43359 44.433589,44.43359 h 286.4375 v -88.86718 z m 0,0" />
        <path
           style="fill:#d9d7d8"
           inkscape:connector-curvature="0"
           id="path10"
           d="m 118.8125,256 c 0,-24.53906 19.89453,-44.43359 44.4375,-44.43359 h -34.29688 c -24.53906,0 -44.433589,19.89453 -44.433589,44.43359 0,24.53906 19.894529,44.43359 44.433589,44.43359 H 163.25 c -24.54297,0 -44.4375,-19.89453 -44.4375,-44.43359 z m 0,0" />
        <path
           style="fill:#58b78c"
           inkscape:connector-curvature="0"
           id="path12"
           d="m 128.95312,211.56641 h 290.11329 c 10.60546,0 19.19921,-8.59766 19.19921,-19.19922 0,-10.60547 -8.59375,-19.19922 -19.19921,-19.19922 H 123.13672 c -42.535158,0 -77.015626,34.48047 -77.015626,77.01172 v 11.64062 c 0,42.53125 34.480468,77.01172 77.015626,77.01172 h 295.92969 c 10.60546,0 19.19921,-8.59375 19.19921,-19.19922 0,-10.60156 -8.59375,-19.19922 -19.19921,-19.19922 H 128.95313 c -24.53907,0 -44.433599,-19.89453 -44.433599,-44.43359 0,-24.53906 19.894529,-44.43359 44.433589,-44.43359 z m 0,0" />
        <path
           style="fill:#efedee"
           inkscape:connector-curvature="0"
           id="path14"
           d="m 173.09375,45.898438 c -24.53906,0 -44.43359,19.894531 -44.43359,44.433593 0,24.542969 19.89453,44.437499 44.43359,44.437499 H 371.25391 V 45.898438 Z m 0,0" />
        <path
           style="fill:#d9d7d8"
           inkscape:connector-curvature="0"
           id="path16"
           d="m 162.95312,90.332031 c 0,-24.539062 19.89454,-44.433593 44.4375,-44.433593 h -34.29687 c -24.53906,0 -44.43359,19.894531 -44.43359,44.433593 0,24.542969 19.89453,44.437499 44.43359,44.437499 h 34.29687 c -24.54296,0 -44.4375,-19.89453 -44.4375,-44.437499 z m 0,0" />
        <path
           style="fill:#fadc60"
           inkscape:connector-curvature="0"
           id="path18"
           d="m 173.09375,45.898438 h 201.83594 c 10.60156,0 19.19922,-8.597657 19.19922,-19.199219 C 394.12891,16.097656 385.53125,7.5 374.92969,7.5 H 167.27344 c -42.53125,0 -77.011721,34.480469 -77.011721,77.015625 v 11.636719 c 0,42.535156 34.480471,77.011716 77.011721,77.011716 h 207.65234 c 10.60547,0 19.19922,-8.59375 19.19922,-19.19531 0,-10.60547 -8.59375,-19.19922 -19.19922,-19.19922 H 173.09375 c -24.53906,0 -44.43359,-19.89453 -44.43359,-44.437499 0,-24.539062 19.89453,-44.433593 44.43359,-44.433593 z m 0,0" />
        <path
           inkscape:connector-curvature="0"
           id="path20"
           d="m 461.51562,458.87891 v -74.42579 c 12.91407,-1.86328 22.8711,-13 22.8711,-26.42187 0,-14.72266 -11.97656,-26.69922 -26.69922,-26.69922 h -14.62891 c 1.73047,-3.53515 2.70703,-7.5039 2.70703,-11.69922 0,-13.42187 -9.95703,-24.55859 -22.875,-26.41797 v -74.42968 c 12.91797,-1.85938 22.875,-12.9961 22.875,-26.42188 0,-14.71875 -11.97656,-26.69531 -26.69921,-26.69531 h -20.14454 c 1.73047,-3.53516 2.70704,-7.50781 2.70704,-11.69922 0,-13.42187 -9.96094,-24.55859 -22.875,-26.42187 V 53.121094 c 12.91406,-1.863282 22.875,-13 22.875,-26.421875 C 401.62891,11.976562 389.64844,0 374.92578,0 H 167.27344 C 120.67578,0 82.761719,37.914062 82.761719,84.515625 v 11.636719 c 0,28.847656 14.535156,54.351566 36.660151,69.609376 -44.886714,1.95312 -80.800776,39.06641 -80.800776,84.41797 v 11.64062 c 0,29.06641 14.753906,54.75 37.160156,69.96485 C 33.269531,336.16797 0,372.19531 0,415.84766 v 11.63671 C 0,474.08594 37.914062,512 84.515625,512 H 457.6875 c 14.72266,0 26.69922,-11.97656 26.69922,-26.69922 0,-13.42187 -9.95703,-24.55859 -22.8711,-26.42187 z M 90.332031,458.60156 c -17.796875,0 -32.691406,-12.65234 -36.167969,-29.43359 H 446.51562 v 29.43359 z M 446.51562,414.16797 H 54.164062 c 3.476563,-16.78125 18.371094,-29.4375 36.167969,-29.4375 H 446.51562 Z M 128.95312,292.9375 c -17.79687,0 -32.691401,-12.65625 -36.167964,-29.4375 H 407.89062 v 29.4375 z M 407.89062,248.5 H 92.785156 c 3.476563,-16.78125 18.371094,-29.4375 36.167964,-29.4375 H 407.89453 V 248.5 Z M 173.09375,127.26953 c -17.79688,0 -32.69141,-12.65234 -36.16797,-29.437499 H 363.75391 V 127.26953 Z M 363.75391,82.832031 H 136.92578 c 3.47656,-16.78125 18.3711,-29.433593 36.16797,-29.433593 H 363.75391 Z M 457.6875,497 H 84.515625 C 46.183594,497 15,465.81641 15,427.48437 v -11.63671 c 0,-38.33204 31.183594,-69.51563 69.515625,-69.51563 h 74.191405 c 4.14453,0 7.5,-3.35547 7.5,-7.5 0,-4.14453 -3.35547,-7.5 -7.5,-7.5 h -35.57031 c -38.332032,0 -69.515626,-31.18359 -69.515626,-69.51562 v -11.63672 c 0,-38.33203 31.183594,-69.51563 69.515626,-69.51563 h 199.07422 c 4.14062,0 7.5,-3.35547 7.5,-7.5 0,-4.14062 -3.35938,-7.5 -7.5,-7.5 h -154.9375 c -38.32813,0 -69.511721,-31.18359 -69.511721,-69.515622 V 84.515625 C 97.761719,46.183594 128.94531,15 167.27344,15 h 207.65234 c 6.45313,0 11.69922,5.246094 11.69922,11.699219 0,6.449219 -5.24609,11.699219 -11.69922,11.699219 H 173.09375 c -28.63672,0 -51.93359,23.296874 -51.93359,51.933593 0,28.640629 23.29687,51.937499 51.93359,51.937499 h 201.83203 c 6.45313,0 11.69922,5.2461 11.69922,11.69922 0,6.44922 -5.24609,11.69922 -11.69922,11.69922 h -24.71484 c -4.14453,0 -7.5,3.35547 -7.5,7.5 0,4.14062 3.35547,7.5 7.5,7.5 h 68.85547 c 6.44922,0 11.69921,5.24609 11.69921,11.69922 0,6.44922 -5.25,11.69531 -11.69921,11.69531 H 128.95313 c -28.63672,0 -51.933599,23.30078 -51.933599,51.9375 0,28.63672 23.296879,51.9375 51.933599,51.9375 h 290.11328 c 6.45312,0 11.69921,5.24609 11.69921,11.69922 0,6.44922 -5.24609,11.69531 -11.69921,11.69531 H 186.71094 c -4.14453,0 -7.5,3.35938 -7.5,7.5 0,4.14453 3.35547,7.5 7.5,7.5 H 457.6875 c 6.45312,0 11.69922,5.25 11.69922,11.69922 0,6.45312 -5.2461,11.69922 -11.69922,11.69922 H 90.332031 c -28.636719,0 -51.933593,23.29687 -51.933593,51.9375 0,28.63672 23.296874,51.93359 51.933593,51.93359 H 457.6875 c 6.45312,0 11.69922,5.25 11.69922,11.69922 0,6.45313 -5.2461,11.69922 -11.69922,11.69922 z m 0,0" />
      </g>
    </g>
  </g>
</svg>
