<?xml version="1.0" encoding="iso-8859-1"?>
<!-- Generator: Adobe Illustrator 19.0.0, SVG Export Plug-In . SVG Version: 6.00 Build 0)  -->
<svg version="1.1" id="Layer_1" xmlns="http://www.w3.org/2000/svg" xmlns:xlink="http://www.w3.org/1999/xlink" x="0px" y="0px"
	 viewBox="0 0 512 512" style="enable-background:new 0 0 512 512;" xml:space="preserve">
<polygon style="fill:#FFDB6C;" points="503.717,166.922 8.265,166.922 87.338,55.893 424.644,55.893 "/>
<polygon style="fill:#FFB04C;" points="8.265,166.922 503.717,166.922 255.991,456.108 "/>
<polygon style="fill:#FFC866;" points="424.644,55.893 424.644,166.922 503.717,166.922 "/>
<polygon style="fill:#F7A05E;" points="424.644,166.922 255.991,456.108 503.717,166.922 "/>
<polygon style="fill:#FFDB6C;" points="87.338,55.893 424.644,55.893 255.991,456.108 "/>
<polygon style="fill:#FFF2BB;" points="377.855,166.922 424.644,55.893 87.338,55.893 134.127,166.922 "/>
<polygon style="fill:#FFEB8A;" points="134.127,166.922 255.991,55.893 377.855,166.922 "/>
<path d="M511.617,169.434c0.779-2.449,0.355-5.23-1.137-7.327L431.408,51.076c-1.551-2.176-4.153-3.508-6.826-3.486H87.391
	c-2.67-0.02-5.268,1.314-6.816,3.486L1.503,162.107c-2.166,3.042-1.971,7.375,0.457,10.216l247.726,289.186
	c1.577,1.842,3.881,2.901,6.305,2.901c2.424,0,4.728-1.059,6.305-2.901l247.726-289.186c0.727-0.85,1.269-1.863,1.606-2.928
	c-0.042,0.134,0.042-0.131-0.023,0.074C511.66,169.297,511.577,169.557,511.617,169.434
	C512.395,166.985,511.557,169.619,511.617,169.434C512.395,166.985,511.557,169.619,511.617,169.434z M259.172,67.125l97.677,91.496
	H156.001L259.172,67.125z M137.28,153.029L99.845,64.194h137.607L137.28,153.029z M280.333,64.194h131.806l-37.304,88.524
	L280.333,64.194z M426.515,72.831l61.097,85.791h-97.248L426.515,72.831z M85.467,72.83l36.152,85.791H24.37L85.467,72.83z
	 M255.991,443.347L26.308,175.224h107.734c0.03,0,0.059,0.007,0.089,0.007c0.044,0,0.089-0.006,0.132-0.007h243.546
	c0.014,0,0.03,0.002,0.044,0.002c0.01,0,0.02-0.002,0.03-0.002h107.792L255.991,443.347z"/>
<path d="M156.945,199.694c-1.781-4.225-6.654-6.208-10.873-4.427c-4.225,1.78-6.207,6.649-4.427,10.873l73.542,174.515
	c1.337,3.172,4.414,5.081,7.653,5.081c1.076,0,2.168-0.209,3.22-0.654c4.225-1.78,6.207-6.649,4.427-10.873L156.945,199.694z"/>
<path d="M365.912,195.267c-4.223-1.781-9.093,0.201-10.873,4.427l-72.197,171.323c-1.78,4.224,0.201,9.093,4.427,10.873
	c1.053,0.444,2.145,0.654,3.22,0.654c3.239,0,6.317-1.908,7.653-5.081l72.197-171.323
	C372.118,201.917,370.137,197.047,365.912,195.267z"/>
<g>
</g>
<g>
</g>
<g>
</g>
<g>
</g>
<g>
</g>
<g>
</g>
<g>
</g>
<g>
</g>
<g>
</g>
<g>
</g>
<g>
</g>
<g>
</g>
<g>
</g>
<g>
</g>
<g>
</g>
</svg>
