<?xml version="1.0" encoding="windows-1252"?>
<!-- Generator: Adobe Illustrator 19.0.0, SVG Export Plug-In . SVG Version: 6.00 Build 0)  -->
<svg version="1.1" id="Capa_1" xmlns="http://www.w3.org/2000/svg" xmlns:xlink="http://www.w3.org/1999/xlink" x="0px" y="0px" viewBox="0 0 512.003 512.003" style="enable-background:new 0 0 512.003 512.003;" xml:space="preserve">
<path style="fill:#FEC007;" d="M344.95,96.452c0-49.126-39.824-88.951-88.951-88.951s-88.951,39.824-88.951,88.951  c0,39.627,25.916,73.196,61.721,84.698L256,226.158l27.229-45.008C319.035,169.648,344.95,136.079,344.95,96.452z"/>
<circle style="fill:#E5E4D3;" cx="269.722" cy="80.361" r="32.24"/>
<polygon style="fill:#E21717;" points="256.001,504.504 76.502,447.087 76.502,256.949 256.001,314.367 "/>
<polygon style="fill:#C1BFA4;" points="256.001,467.23 76.502,409.812 76.502,219.675 256.001,277.093 "/>
<polygon style="fill:#A09D80;" points="100.034,390.103 100.034,227.202 76.502,219.675 76.502,409.812 256.001,467.23   256.001,439.994 "/>
<polygon style="fill:#E5E4D3;" points="256.001,422.886 96.982,372.019 96.982,203.576 256.001,254.443 "/>
<polygon style="fill:#E21717;" points="256.001,504.504 435.499,447.087 435.499,256.949 256.001,314.367 "/>
<polygon style="fill:#C1BFA4;" points="256.001,467.23 435.499,409.812 435.499,219.675 256.001,277.093 "/>
<polygon style="fill:#A09D80;" points="411.967,390.103 411.967,227.202 435.499,219.675 435.499,409.812 256.001,467.23   256.001,439.994 "/>
<g>
	<polygon style="fill:#E5E4D3;" points="256.001,422.886 415.019,372.019 415.019,203.576 256.001,254.443  "/>
	<polygon style="fill:#E5E4D3;" points="391.166,349.161 391.166,211.206 415.019,203.576 415.019,372.019 256.001,422.886    256.001,392.397  "/>
</g>
<polygon style="fill:#FEC007;" points="311.06,313.985 350.92,301.235 350.92,259.013 311.06,271.763 "/>
<path d="M166.801,99.72c4.175,0.198,7.648-3.004,7.843-7.142c2.033-43.5,37.77-77.576,81.356-77.576  c44.912,0,81.45,36.538,81.45,81.45c0,35.531-22.712,66.699-56.515,77.558c-1.723,0.553-3.187,1.71-4.123,3.258L256,211.669  l-20.813-34.401c-0.937-1.548-2.4-2.705-4.123-3.258c-25.635-8.234-45.507-28.558-53.159-54.365  c-1.178-3.972-5.354-6.237-9.322-5.059c-3.972,1.177-6.236,5.351-5.059,9.322c8.791,29.649,31.202,53.186,60.248,63.47  l25.811,42.662c1.358,2.246,3.792,3.618,6.417,3.618s5.059-1.372,6.417-3.618l25.81-42.662  c38.532-13.625,64.224-49.81,64.224-90.928C352.451,43.267,309.183,0,256.001,0c-51.613,0-93.932,40.356-96.341,91.877  C159.466,96.016,162.664,99.526,166.801,99.72z"/>
<path d="M204.732,145.353c1.465,1.464,3.385,2.197,5.304,2.197c1.919,0,3.839-0.732,5.304-2.197l32.098-32.098  c6.703,4.545,14.493,6.826,22.287,6.826c10.177,0,20.354-3.874,28.101-11.621c15.493-15.494,15.493-40.705,0-56.198  c-15.494-15.493-40.706-15.495-56.2,0c-13.68,13.68-15.272,34.932-4.794,50.386l-32.098,32.098  C201.803,137.675,201.803,142.424,204.732,145.353z M252.233,62.867c4.822-4.823,11.157-7.234,17.492-7.234  c6.336,0,12.671,2.412,17.493,7.234c9.646,9.646,9.646,25.34,0,34.985c-9.645,9.645-25.341,9.646-34.985,0  C242.588,88.208,242.588,72.513,252.233,62.867z"/>
<path d="M146.473,272.816l67.023,20.845c0.742,0.23,1.492,0.34,2.229,0.34c3.197,0,6.16-2.061,7.16-5.274  c1.229-3.956-0.979-8.159-4.935-9.389l-67.023-20.845c-3.96-1.231-8.159,0.979-9.39,4.934  C140.309,267.382,142.518,271.586,146.473,272.816z"/>
<path d="M146.473,299.39l67.023,20.845c0.742,0.23,1.492,0.34,2.229,0.34c3.197,0,6.16-2.061,7.16-5.274  c1.229-3.956-0.979-8.159-4.935-9.389l-67.023-20.845c-3.96-1.229-8.159,0.979-9.39,4.934  C140.309,293.956,142.518,298.16,146.473,299.39z"/>
<path d="M146.473,325.964l67.023,20.845c0.742,0.23,1.492,0.34,2.229,0.34c3.197,0,6.16-2.061,7.16-5.274  c1.229-3.956-0.979-8.159-4.935-9.389l-67.023-20.845c-3.96-1.229-8.159,0.98-9.39,4.934  C140.309,320.53,142.518,324.734,146.473,325.964z"/>
<path d="M439.923,213.614c-1.933-1.411-4.425-1.816-6.707-1.086l-10.697,3.421v-12.373c0-2.395-1.144-4.646-3.078-6.058  c-1.934-1.412-4.424-1.816-6.707-1.086l-156.733,50.135l-95.275-30.476c-3.94-1.262-8.166,0.913-9.429,4.858  c-1.262,3.945,0.913,8.167,4.858,9.429l92.346,29.539v17.174v37.27v98.251l-144.019-46.068V213.85l22.125,7.078  c3.943,1.262,8.166-0.913,9.429-4.858c1.262-3.945-0.913-8.167-4.858-9.429l-31.91-10.208c-2.283-0.73-4.774-0.326-6.707,1.086  c-1.935,1.412-3.078,3.663-3.078,6.058v12.373l-10.697-3.421c-2.282-0.73-4.773-0.325-6.707,1.086  c-1.935,1.412-3.078,3.663-3.078,6.058v37.28v152.861v37.27c0,3.262,2.108,6.149,5.215,7.144l179.501,57.42  c1.474,0.472,3.096,0.471,4.57,0l92.231-29.5c3.945-1.262,6.12-5.483,4.858-9.428c-1.262-3.945-5.483-6.12-9.429-4.859  l-82.445,26.371v-21.522l164.501-52.622v21.521l-52.516,16.802c-3.945,1.262-6.12,5.483-4.858,9.428  c1.02,3.186,3.968,5.217,7.142,5.217c0.757,0,1.527-0.116,2.287-0.358l57.73-18.47c3.106-0.994,5.215-3.882,5.215-7.144v-37.27  V256.953v-37.28C443.002,217.277,441.858,215.026,439.923,213.614C437.991,212.203,441.858,215.026,439.923,213.614  C437.991,212.203,441.858,215.026,439.923,213.614z M263.501,314.363v-37.27v-17.174L407.52,213.85v152.695l-144.019,46.068V314.363  z M84,229.945l5.482,1.754V372.02c0,3.262,2.108,6.149,5.215,7.144l153.804,49.198v28.598L84,404.338V256.953  C84,256.953,84,229.945,84,229.945z M84,420.087l164.501,52.622v21.521L84,441.609C84,441.609,84,420.087,84,420.087z   M263.501,456.961v-28.598l153.804-49.198c3.106-0.994,5.215-3.882,5.215-7.144V231.699l5.482-1.754v27.007v147.386L263.501,456.961  z"/>
<path d="M355.341,252.954c-1.933-1.412-4.424-1.816-6.707-1.086l-39.859,12.75c-3.106,0.994-5.215,3.882-5.215,7.144v42.222  c0,2.395,1.144,4.646,3.078,6.058c1.3,0.949,2.852,1.442,4.423,1.442c0.766,0,1.536-0.117,2.284-0.356l39.859-12.75  c3.106-0.994,5.215-3.882,5.215-7.144v-42.222C358.42,256.617,357.276,254.366,355.341,252.954z M343.42,295.76l-24.859,7.952  v-26.474l24.859-7.952V295.76z"/>
<g>
</g>
<g>
</g>
<g>
</g>
<g>
</g>
<g>
</g>
<g>
</g>
<g>
</g>
<g>
</g>
<g>
</g>
<g>
</g>
<g>
</g>
<g>
</g>
<g>
</g>
<g>
</g>
<g>
</g>
</svg>