<?xml version="1.0" encoding="UTF-8" standalone="no"?>
<svg
   xmlns:dc="http://purl.org/dc/elements/1.1/"
   xmlns:cc="http://creativecommons.org/ns#"
   xmlns:rdf="http://www.w3.org/1999/02/22-rdf-syntax-ns#"
   xmlns:svg="http://www.w3.org/2000/svg"
   xmlns="http://www.w3.org/2000/svg"
   xmlns:sodipodi="http://sodipodi.sourceforge.net/DTD/sodipodi-0.dtd"
   xmlns:inkscape="http://www.inkscape.org/namespaces/inkscape"
   viewBox="-14 0 1992.0288 512"
   version="1.1"
   id="svg22"
   sodipodi:docname="logo_long.svg"
   width="1992.0288"
   height="512"
   inkscape:version="1.0.1 (3bc2e813f5, 2020-09-07)">
  <metadata
     id="metadata28">
    <rdf:RDF>
      <cc:Work
         rdf:about="">
        <dc:format>image/svg+xml</dc:format>
        <dc:type
           rdf:resource="http://purl.org/dc/dcmitype/StillImage" />
        <dc:title />
      </cc:Work>
    </rdf:RDF>
  </metadata>
  <defs
     id="defs26" />
  <sodipodi:namedview
     pagecolor="#ffffff"
     bordercolor="#666666"
     borderopacity="1"
     objecttolerance="10"
     gridtolerance="10"
     guidetolerance="10"
     inkscape:pageopacity="0"
     inkscape:pageshadow="2"
     inkscape:window-width="1280"
     inkscape:window-height="663"
     id="namedview24"
     showgrid="false"
     fit-margin-top="0"
     fit-margin-left="0"
     fit-margin-right="0"
     fit-margin-bottom="0"
     inkscape:zoom="0.18920631"
     inkscape:cx="854.65467"
     inkscape:cy="717.23494"
     inkscape:window-x="0"
     inkscape:window-y="0"
     inkscape:window-maximized="1"
     inkscape:current-layer="svg22"
     inkscape:document-rotation="0" />
  <path
     d="m 76.332031,377.23047 c -24.539062,0 -44.433593,19.89453 -44.433593,44.4375 0,24.53906 19.894531,44.43359 44.433593,44.43359 H 440.01562 v -88.87109 z m 0,0"
     fill="#efedee"
     id="path2" />
  <path
     d="m 66.191406,421.66797 c 0,-24.54297 19.894534,-44.4375 44.437504,-44.4375 H 76.332031 c -24.539062,0 -44.433593,19.89453 -44.433593,44.4375 0,24.53906 19.894531,44.43359 44.433593,44.43359 h 34.296879 c -24.54297,0 -44.437504,-19.89453 -44.437504,-44.43359 z m 0,0"
     fill="#d9d7d8"
     id="path4" />
  <path
     d="M 76.332031,377.23047 H 443.6875 c 10.60547,0 19.19922,-8.59375 19.19922,-19.19922 0,-10.60156 -8.59375,-19.19531 -19.19922,-19.19531 H 70.515625 C 27.980469,338.83594 -6.5,373.3125 -6.5,415.84766 v 11.63671 C -6.5,470.01953 27.980469,504.5 70.515625,504.5 H 443.6875 c 10.60547,0 19.19922,-8.59766 19.19922,-19.19922 0,-10.60156 -8.59375,-19.19922 -19.19922,-19.19922 H 76.332031 c -24.539062,0 -44.433593,-19.89453 -44.433593,-44.43359 0,-24.54297 19.894531,-44.4375 44.433593,-44.4375 z m 0,0"
     fill="#fd6f71"
     id="path6" />
  <path
     d="m 114.95312,211.56641 c -24.53906,0 -44.433589,19.89453 -44.433589,44.43359 0,24.53906 19.894529,44.43359 44.433589,44.43359 h 286.4375 v -88.86718 z m 0,0"
     fill="#efedee"
     id="path8" />
  <path
     d="m 104.8125,256 c 0,-24.53906 19.89453,-44.43359 44.4375,-44.43359 h -34.29688 c -24.53906,0 -44.433589,19.89453 -44.433589,44.43359 0,24.53906 19.894529,44.43359 44.433589,44.43359 H 149.25 c -24.54297,0 -44.4375,-19.89453 -44.4375,-44.43359 z m 0,0"
     fill="#d9d7d8"
     id="path10" />
  <path
     d="m 114.95312,211.56641 h 290.11329 c 10.60546,0 19.19921,-8.59766 19.19921,-19.19922 0,-10.60547 -8.59375,-19.19922 -19.19921,-19.19922 H 109.13672 c -42.535158,0 -77.015626,34.48047 -77.015626,77.01172 v 11.64062 c 0,42.53125 34.480468,77.01172 77.015626,77.01172 h 295.92969 c 10.60546,0 19.19921,-8.59375 19.19921,-19.19922 0,-10.60156 -8.59375,-19.19922 -19.19921,-19.19922 H 114.95313 c -24.53907,0 -44.433599,-19.89453 -44.433599,-44.43359 0,-24.53906 19.894529,-44.43359 44.433589,-44.43359 z m 0,0"
     fill="#58b78c"
     id="path12" />
  <path
     d="m 159.09375,45.898438 c -24.53906,0 -44.43359,19.894531 -44.43359,44.433593 0,24.542969 19.89453,44.437499 44.43359,44.437499 H 357.25391 V 45.898438 Z m 0,0"
     fill="#efedee"
     id="path14" />
  <path
     d="m 148.95312,90.332031 c 0,-24.539062 19.89454,-44.433593 44.4375,-44.433593 h -34.29687 c -24.53906,0 -44.43359,19.894531 -44.43359,44.433593 0,24.542969 19.89453,44.437499 44.43359,44.437499 h 34.29687 c -24.54296,0 -44.4375,-19.89453 -44.4375,-44.437499 z m 0,0"
     fill="#d9d7d8"
     id="path16" />
  <path
     d="m 159.09375,45.898438 h 201.83594 c 10.60156,0 19.19922,-8.597657 19.19922,-19.199219 C 380.12891,16.097656 371.53125,7.5 360.92969,7.5 H 153.27344 c -42.53125,0 -77.011721,34.480469 -77.011721,77.015625 v 11.636719 c 0,42.535156 34.480471,77.011716 77.011721,77.011716 h 207.65234 c 10.60547,0 19.19922,-8.59375 19.19922,-19.19531 0,-10.60547 -8.59375,-19.19922 -19.19922,-19.19922 H 159.09375 c -24.53906,0 -44.43359,-19.89453 -44.43359,-44.437499 0,-24.539062 19.89453,-44.433593 44.43359,-44.433593 z m 0,0"
     fill="#fadc60"
     id="path18" />
  <path
     d="m 447.51562,458.87891 v -74.42579 c 12.91407,-1.86328 22.8711,-13 22.8711,-26.42187 0,-14.72266 -11.97656,-26.69922 -26.69922,-26.69922 h -14.62891 c 1.73047,-3.53515 2.70703,-7.5039 2.70703,-11.69922 0,-13.42187 -9.95703,-24.55859 -22.875,-26.41797 v -74.42968 c 12.91797,-1.85938 22.875,-12.9961 22.875,-26.42188 0,-14.71875 -11.97656,-26.69531 -26.69921,-26.69531 h -20.14454 c 1.73047,-3.53516 2.70704,-7.50781 2.70704,-11.69922 0,-13.42187 -9.96094,-24.55859 -22.875,-26.42187 V 53.121094 c 12.91406,-1.863282 22.875,-13 22.875,-26.421875 C 387.62891,11.976562 375.64844,0 360.92578,0 H 153.27344 C 106.67578,0 68.761719,37.914062 68.761719,84.515625 v 11.636719 c 0,28.847656 14.535156,54.351566 36.660151,69.609376 -44.886714,1.95312 -80.800776,39.06641 -80.800776,84.41797 v 11.64062 c 0,29.06641 14.753906,54.75 37.160156,69.96485 C 19.269531,336.16797 -14,372.19531 -14,415.84766 v 11.63671 C -14,474.08594 23.914062,512 70.515625,512 H 443.6875 c 14.72266,0 26.69922,-11.97656 26.69922,-26.69922 0,-13.42187 -9.95703,-24.55859 -22.8711,-26.42187 z M 76.332031,458.60156 c -17.796875,0 -32.691406,-12.65234 -36.167969,-29.43359 H 432.51562 v 29.43359 z M 432.51562,414.16797 H 40.164062 c 3.476563,-16.78125 18.371094,-29.4375 36.167969,-29.4375 H 432.51562 Z M 114.95312,292.9375 c -17.79687,0 -32.691401,-12.65625 -36.167964,-29.4375 H 393.89062 v 29.4375 z M 393.89062,248.5 H 78.785156 C 82.261719,231.71875 97.15625,219.0625 114.95312,219.0625 H 393.89453 V 248.5 Z M 159.09375,127.26953 c -17.79688,0 -32.69141,-12.65234 -36.16797,-29.437499 H 349.75391 V 127.26953 Z M 349.75391,82.832031 H 122.92578 c 3.47656,-16.78125 18.3711,-29.433593 36.16797,-29.433593 H 349.75391 Z M 443.6875,497 H 70.515625 C 32.183594,497 1,465.81641 1,427.48437 v -11.63671 c 0,-38.33204 31.183594,-69.51563 69.515625,-69.51563 h 74.191405 c 4.14453,0 7.5,-3.35547 7.5,-7.5 0,-4.14453 -3.35547,-7.5 -7.5,-7.5 h -35.57031 c -38.332032,0 -69.515626,-31.18359 -69.515626,-69.51562 v -11.63672 c 0,-38.33203 31.183594,-69.51563 69.515626,-69.51563 h 199.07422 c 4.14062,0 7.5,-3.35547 7.5,-7.5 0,-4.14062 -3.35938,-7.5 -7.5,-7.5 h -154.9375 c -38.32813,0 -69.511721,-31.18359 -69.511721,-69.515622 V 84.515625 C 83.761719,46.183594 114.94531,15 153.27344,15 h 207.65234 c 6.45313,0 11.69922,5.246094 11.69922,11.699219 0,6.449219 -5.24609,11.699219 -11.69922,11.699219 H 159.09375 c -28.63672,0 -51.93359,23.296874 -51.93359,51.933593 0,28.640629 23.29687,51.937499 51.93359,51.937499 h 201.83203 c 6.45313,0 11.69922,5.2461 11.69922,11.69922 0,6.44922 -5.24609,11.69922 -11.69922,11.69922 h -24.71484 c -4.14453,0 -7.5,3.35547 -7.5,7.5 0,4.14062 3.35547,7.5 7.5,7.5 h 68.85547 c 6.44922,0 11.69921,5.24609 11.69921,11.69922 0,6.44922 -5.25,11.69531 -11.69921,11.69531 H 114.95313 c -28.63672,0 -51.933599,23.30078 -51.933599,51.9375 0,28.63672 23.296879,51.9375 51.933599,51.9375 h 290.11328 c 6.45312,0 11.69921,5.24609 11.69921,11.69922 0,6.44922 -5.24609,11.69531 -11.69921,11.69531 H 172.71094 c -4.14453,0 -7.5,3.35938 -7.5,7.5 0,4.14453 3.35547,7.5 7.5,7.5 H 443.6875 c 6.45312,0 11.69922,5.25 11.69922,11.69922 0,6.45312 -5.2461,11.69922 -11.69922,11.69922 H 76.332031 c -28.636719,0 -51.933593,23.29687 -51.933593,51.9375 0,28.63672 23.296874,51.93359 51.933593,51.93359 H 443.6875 c 6.45312,0 11.69922,5.25 11.69922,11.69922 0,6.45313 -5.2461,11.69922 -11.69922,11.69922 z m 0,0"
     id="path20" />
  <g
     aria-label="Aprelendo"
     id="text38"
     style="font-size:213.333px;line-height:125%;font-family:sans-serif;letter-spacing:0px;word-spacing:0px;fill:none;stroke:#ffffff;stroke-width:1px;stroke-linecap:butt;stroke-linejoin:miter;stroke-opacity:1">
    <path
       d="m 600.6508,351.76001 q -3.12,0 -6.72,-1.44 -3.6,-1.44 -3.6,-4.56 0,-4.56 5.04,-11.76 5.04,-7.44 5.04,-9.84 0,-8.64 5.28,-11.52 0.96,-0.48 2.88,-5.52 2.16,-5.28 5.04,-12 2.88,-6.72 5.76,-9.84 6.48,-6.72 24.72,-49.92 7.92,-18.48 22.08,-44.4 14.16,-25.92 18.48,-29.76 5.76,-1.92 6.96,-1.92 3.84,0 7.92,2.4 4.08,4.8 14.4,28.8 10.56,23.76 10.56,30.48 0.24,4.8 4.56,21.6 4.32,16.56 6,26.4 1.2,9.12 7.44,30.72 6.24,21.6 6.24,27.12 0,2.64 -1.2,3.84 -1.2,1.2 -5.28,1.2 -3.12,0 -8.88,-2.64 -3.84,-1.92 -6,-5.04 -1.92,-3.12 -2.88,-6.48 -0.72,-3.36 -3.12,-12.96 -2.16,-9.6 -4.8,-18.72 l -4.56,-15.6 -10.32,1.2 q -15.12,1.92 -32.64,3.12 l -17.28,1.2 -6.96,10.32 q -18.72,27.36 -29.28,52.56 -5.52,12.96 -14.88,12.96 z m 100.32,-104.88 q 0,-4.56 -4.32,-23.04 -4.08,-18.72 -7.2,-26.16 -6.48,9.12 -13.2,23.28 -6.72,14.16 -10.32,23.76 l -3.6,9.6 15.84,-0.96 q 14.88,-0.96 18.72,-1.92 4.08,-0.96 4.08,-4.56 z"
       style="font-style:normal;font-variant:normal;font-weight:bold;font-stretch:normal;font-size:240px;font-family:Purisa;-inkscape-font-specification:'Purisa, Bold';font-variant-ligatures:normal;font-variant-caps:normal;font-variant-numeric:normal;font-variant-east-asian:normal;fill:#ffffff;stroke:#ffffff"
       id="path19" />
    <path
       d="m 784.2508,243.76001 q 0,-4.56 6.72,-10.32 6.72,-5.76 6.72,-8.88 0,-5.28 3.36,-12.48 3.36,-7.2 10.56,-7.2 4.8,0 7.68,3.84 3.12,3.6 4.32,3.6 2.16,0 18.72,-3.6 16.56,-3.84 29.76,-3.84 11.04,0 24.24,2.64 27.84,6 27.84,32.88 0,20.4 -15.12,50.88 -10.32,21.12 -26.4,32.64 -16.08,11.52 -34.56,11.52 -4.8,0 -7.92,-0.48 l -7.2,-0.96 1.92,8.16 q 9.36,39.36 9.36,51.12 0,10.32 -10.8,10.32 -6.96,0 -10.32,-4.08 -4.32,-5.52 -10.08,-33.6 -5.52,-27.84 -9.6,-72 -1.44,-15.36 -2.4,-23.76 -0.72,-8.64 -1.68,-12.72 -0.96,-4.32 -1.68,-5.28 -0.72,-0.96 -2.16,-0.96 -11.28,0 -11.28,-7.44 z m 110.16,-13.92 q -2.88,-1.44 -14.16,-1.44 -23.28,0 -41.52,5.28 l -15.12,4.56 0.48,13.2 q 0.72,18.24 2.88,39.12 2.4,20.88 4.32,20.88 4.8,0 10.08,3.12 5.28,2.88 7.68,2.88 9.12,0 21.6,-11.76 12.72,-11.76 21.84,-28.56 9.12,-17.04 9.12,-30 0,-4.8 -1.68,-8.88 -1.68,-4.32 -3.36,-6 -1.44,-1.92 -2.16,-2.4 z"
       style="font-style:normal;font-variant:normal;font-weight:bold;font-stretch:normal;font-size:240px;font-family:Purisa;-inkscape-font-specification:'Purisa, Bold';font-variant-ligatures:normal;font-variant-caps:normal;font-variant-numeric:normal;font-variant-east-asian:normal;fill:#ffffff;stroke:#ffffff"
       id="path21" />
    <path
       d="m 1048.2505,227.20001 q 4.56,0 7.92,2.16 3.36,1.92 4.32,3.84 1.2,1.92 1.2,3.36 0,4.8 -11.04,8.88 -14.64,5.52 -31.92,27.12 -17.04,21.6 -20.63998,40.56 -4.56,24.24 -7.68,32.16 -3.12,8.16 -9.12,8.16 -2.4,0 -4.32,-0.72 -1.68,-0.48 -2.88,-2.16 -1.2,-1.68 -1.92,-2.88 -0.72,-1.2 -1.44,-3.84 -0.48,-2.88 -0.72,-4.08 0,-1.44 -0.48,-4.56 -0.24,-3.36 -0.24,-4.08 -5.76,-56.16 -5.76,-94.32 0,-7.92 0.96,-12.24 0.96,-4.56 4.8,-7.92 2.4,-2.16 5.28,-2.16 3.12,0 5.28,2.64 2.16,2.4 2.16,6.48 0,8.88 2.4,25.2 2.64,16.08 4.8,25.2 1.92,-2.64 5.52,-8.16 9.11998,-14.88 25.43998,-26.64 16.32,-12 28.08,-12 z"
       style="font-style:normal;font-variant:normal;font-weight:bold;font-stretch:normal;font-size:240px;font-family:Purisa;-inkscape-font-specification:'Purisa, Bold';font-variant-ligatures:normal;font-variant-caps:normal;font-variant-numeric:normal;font-variant-east-asian:normal;fill:#ffffff;stroke:#ffffff"
       id="path23" />
    <path
       d="m 1192.9703,248.56001 q 0,-1.92 -10.56,-9.84 -7.68,-5.76 -11.04,-7.2 -3.12,-1.44 -9.12,-1.44 -12,0 -17.76,1.92 -5.52,1.68 -11.76,7.68 -18.48,18 -18.72,23.28 0.96,0.24 4.08,0.24 23.28,0 64.56,-8.16 10.32,-1.92 10.32,-6.48 z m 30.96,37.92 q 4.32,0 4.32,5.04 0,5.52 -6.96,15.84 -6.96,10.08 -13.92,16.32 -26.88,23.04 -55.44,23.04 -23.52,0 -42.48,-18.48 -18.96,-18.48 -18.96,-50.88 0,-9.12 2.64,-17.52 5.04,-14.88 22.56,-30.96 17.52,-16.32 33.6,-16.32 4.32,0 12.72,0.72 12.96,0.96 18.24,2.64 5.52,1.44 12.48,6 7.68,5.04 13.92,14.4 6.24,9.12 6.24,16.08 0,9.12 -7.44,13.44 -7.44,4.32 -25.2,7.92 -23.28,4.56 -48,6 l -20.88,0.96 v 6.24 q 0,8.88 3.84,15.6 4.08,6.72 12.96,14.16 12.72,10.56 25.92,10.56 10.56,0 22.32,-6.24 11.76,-6.48 19.92,-14.16 8.4,-7.68 16.08,-13.92 7.92,-6.48 11.52,-6.48 z"
       style="font-style:normal;font-variant:normal;font-weight:bold;font-stretch:normal;font-size:240px;font-family:Purisa;-inkscape-font-specification:'Purisa, Bold';font-variant-ligatures:normal;font-variant-caps:normal;font-variant-numeric:normal;font-variant-east-asian:normal;fill:#ffffff;stroke:#ffffff"
       id="path25" />
    <path
       d="m 1262.09,150.64001 q 0,-17.52 1.44,-26.88 1.44,-9.36 3.36,-11.76 2.16,-2.64 5.76,-2.64 5.76,0 6.96,4.8 1.2,5.04 5.04,61.2 4.08,56.16 7.44,109.2 3.6,53.04 3.6,54.24 0,8.4 -9.12,8.4 -8.16,0 -10.56,-9.84 -2.16,-10.08 -5.52,-58.56 -3.84,-51.12 -6.96,-89.04 -1.44,-20.16 -1.44,-39.12 z"
       style="font-style:normal;font-variant:normal;font-weight:bold;font-stretch:normal;font-size:240px;font-family:Purisa;-inkscape-font-specification:'Purisa, Bold';font-variant-ligatures:normal;font-variant-caps:normal;font-variant-numeric:normal;font-variant-east-asian:normal;fill:#ffffff;stroke:#ffffff"
       id="path27" />
    <path
       d="m 1431.5298,248.56001 q 0,-1.92 -10.56,-9.84 -7.68,-5.76 -11.04,-7.2 -3.12,-1.44 -9.12,-1.44 -12,0 -17.76,1.92 -5.52,1.68 -11.76,7.68 -18.48,18 -18.72,23.28 0.96,0.24 4.08,0.24 23.28,0 64.56,-8.16 10.32,-1.92 10.32,-6.48 z m 30.96,37.92 q 4.32,0 4.32,5.04 0,5.52 -6.96,15.84 -6.96,10.08 -13.92,16.32 -26.88,23.04 -55.44,23.04 -23.52,0 -42.48,-18.48 -18.96,-18.48 -18.96,-50.88 0,-9.12 2.64,-17.52 5.04,-14.88 22.56,-30.96 17.52,-16.32 33.6,-16.32 4.32,0 12.72,0.72 12.96,0.96 18.24,2.64 5.52,1.44 12.48,6 7.68,5.04 13.92,14.4 6.24,9.12 6.24,16.08 0,9.12 -7.44,13.44 -7.44,4.32 -25.2,7.92 -23.28,4.56 -48,6 l -20.88,0.96 v 6.24 q 0,8.88 3.84,15.6 4.08,6.72 12.96,14.16 12.72,10.56 25.92,10.56 10.56,0 22.32,-6.24 11.76,-6.48 19.92,-14.16 8.4,-7.68 16.08,-13.92 7.92,-6.48 11.52,-6.48 z"
       style="font-style:normal;font-variant:normal;font-weight:bold;font-stretch:normal;font-size:240px;font-family:Purisa;-inkscape-font-specification:'Purisa, Bold';font-variant-ligatures:normal;font-variant-caps:normal;font-variant-numeric:normal;font-variant-east-asian:normal;fill:#ffffff;stroke:#ffffff"
       id="path29" />
    <path
       d="m 1507.6094,218.80001 q 0,-12.48 7.92,-12.48 5.28,0.24 6.96,6.48 1.68,6.24 4.8,35.04 0.24,2.16 0.24,3.36 0.24,1.2 0.48,3.12 0.24,1.92 0.48,3.6 l 3.36,27.36 2.64,-7.92 q 5.04,-15.6 8.64,-22.8 3.84,-7.2 13.92,-20.4 19.44,-25.68 32.88,-25.68 8.88,0 15.36,9.84 7.68,10.8 9.36,21.6 1.92,10.8 2.64,49.44 0.48,24.48 0.48,29.76 0,15.84 -2.16,21.6 -2.16,5.52 -8.88,5.52 -4.56,0 -6,-2.4 -1.44,-2.64 -1.44,-10.32 0,-3.6 0.48,-14.88 0.48,-11.28 0.48,-18.72 0,-20.4 -1.68,-38.16 -1.68,-17.76 -3.84,-22.32 -0.96,-1.92 -2.4,-3.6 -1.44,-1.92 -2.64,-2.88 -0.96,-0.96 -1.44,-0.96 -3.84,0 -15.84,16.08 -11.76,16.08 -19.92,32.88 -8.4,17.76 -11.28,25.92 -2.64,8.16 -4.32,22.08 -2.64,22.32 -4.32,24.72 -1.2,1.44 -2.64,1.44 -3.6,-0.48 -7.68,-5.04 -2.16,-2.4 -3.36,-6 -0.96,-3.84 -1.68,-11.52 -0.72,-7.92 -1.2,-16.8 -0.48,-9.12 -1.92,-26.16 -1.44,-17.28 -3.6,-35.76 -2.88,-28.8 -2.88,-35.04 z"
       style="font-style:normal;font-variant:normal;font-weight:bold;font-stretch:normal;font-size:240px;font-family:Purisa;-inkscape-font-specification:'Purisa, Bold';font-variant-ligatures:normal;font-variant-caps:normal;font-variant-numeric:normal;font-variant-east-asian:normal;fill:#ffffff;stroke:#ffffff"
       id="path31" />
    <path
       d="m 1741.8492,245.44001 q -13.92,-8.16 -18.96,-8.16 -3.36,0 -20.64,14.16 -17.28,14.16 -20.88,21.6 -2.16,4.32 -2.16,18.48 0,16.08 2.88,20.88 2.16,3.36 11.28,7.68 9.36,4.32 17.76,4.32 16.08,0 41.76,-21.6 18,-15.12 19.92,-20.88 0,-6 -10.08,-18 -9.84,-12 -20.88,-18.48 z m 34.8,63.84 q -0.24,0.24 -5.04,5.28 -4.56,4.8 -10.32,9.6 -5.52,4.8 -13.44,10.32 -7.68,5.52 -18,8.88 -10.32,3.36 -20.88,3.36 -9.12,0 -19.92,-3.6 -33.84,-11.52 -33.84,-47.52 0,-14.64 5.04,-27.84 5.28,-13.44 13.2,-22.8 8.16,-9.6 17.52,-16.56 9.6,-6.96 18.48,-10.32 8.88,-3.6 15.36,-3.6 7.44,0 23.76,8.64 16.32,8.64 23.04,16.56 3.84,4.8 5.76,6.24 0.96,-8.4 1.68,-65.28 0.72,-57.12 3.12,-62.88 3.84,-9.36 12.24,-9.36 h 9.6 l -1.92,101.76 q -0.72,35.04 -0.72,62.64 0,37.2 1.68,53.28 1.68,15.84 1.68,17.52 0,5.04 -2.64,10.32 -2.64,5.28 -8.88,5.28 -7.68,0 -10.8,-8.88 -3.12,-8.64 -4.08,-23.04 -0.72,-14.4 -1.68,-18 z"
       style="font-style:normal;font-variant:normal;font-weight:bold;font-stretch:normal;font-size:240px;font-family:Purisa;-inkscape-font-specification:'Purisa, Bold';font-variant-ligatures:normal;font-variant-caps:normal;font-variant-numeric:normal;font-variant-east-asian:normal;fill:#ffffff;stroke:#ffffff"
       id="path33" />
    <path
       d="m 1860.6488,236.08001 q 20.16,-17.28 34.32,-22.8 14.4,-5.52 36,-5.52 33.36,0 41.76,18.72 4.8,10.56 4.8,26.16 0,24.72 -12,50.4 -11.76,25.68 -30,36 -17.76,9.84 -37.68,9.84 -29.28,0 -44.64,-17.28 -10.8,-12 -14.16,-20.4 -3.12,-8.64 -3.12,-23.76 0,-30 24.72,-51.36 z m 43.44,92.88 q 19.68,0 36.24,-24.96 16.8,-25.2 16.8,-57.12 0,-3.36 -0.72,-5.28 -0.48,-1.92 -1.2,-2.64 -0.72,-0.96 -2.64,-2.4 -8.64,-6.24 -18.24,-6.24 -1.44,0 -4.08,0.48 -2.4,0.24 -7.44,0.96 -4.8,0.48 -10.56,0.96 -7.92,0.72 -12.96,3.12 -4.8,2.16 -12.48,8.64 -14.4,12.24 -20.64,22.56 -6,10.08 -6,22.08 0,17.52 12.24,28.8 12.24,11.04 31.68,11.04 z"
       style="font-style:normal;font-variant:normal;font-weight:bold;font-stretch:normal;font-size:240px;font-family:Purisa;-inkscape-font-specification:'Purisa, Bold';font-variant-ligatures:normal;font-variant-caps:normal;font-variant-numeric:normal;font-variant-east-asian:normal;fill:#ffffff;stroke:#ffffff"
       id="path35" />
  </g>
</svg>
