<?xml version="1.0" encoding="UTF-8" standalone="no"?>
<svg
   xmlns:dc="http://purl.org/dc/elements/1.1/"
   xmlns:cc="http://creativecommons.org/ns#"
   xmlns:rdf="http://www.w3.org/1999/02/22-rdf-syntax-ns#"
   xmlns:svg="http://www.w3.org/2000/svg"
   xmlns="http://www.w3.org/2000/svg"
   xmlns:sodipodi="http://sodipodi.sourceforge.net/DTD/sodipodi-0.dtd"
   xmlns:inkscape="http://www.inkscape.org/namespaces/inkscape"
   viewBox="-14 0 1992.0288 512"
   version="1.1"
   id="svg22"
   sodipodi:docname="logo_long.svg"
   width="1992.0288"
   height="512"
   inkscape:version="1.0.1 (3bc2e813f5, 2020-09-07)">
  <metadata
     id="metadata28">
    <rdf:RDF>
      <cc:Work
         rdf:about="">
        <dc:format>image/svg+xml</dc:format>
        <dc:type
           rdf:resource="http://purl.org/dc/dcmitype/StillImage" />
        <dc:title></dc:title>
      </cc:Work>
    </rdf:RDF>
  </metadata>
  <defs
     id="defs26" />
  <sodipodi:namedview
     pagecolor="#ffffff"
     bordercolor="#666666"
     borderopacity="1"
     objecttolerance="10"
     gridtolerance="10"
     guidetolerance="10"
     inkscape:pageopacity="0"
     inkscape:pageshadow="2"
     inkscape:window-width="1280"
     inkscape:window-height="692"
     id="namedview24"
     showgrid="false"
     fit-margin-top="0"
     fit-margin-left="0"
     fit-margin-right="0"
     fit-margin-bottom="0"
     inkscape:zoom="0.18920631"
     inkscape:cx="854.65467"
     inkscape:cy="717.23494"
     inkscape:window-x="-1"
     inkscape:window-y="-29"
     inkscape:window-maximized="1"
     inkscape:current-layer="svg22" />
  <path
     d="m 76.332031,377.23047 c -24.539062,0 -44.433593,19.89453 -44.433593,44.4375 0,24.53906 19.894531,44.43359 44.433593,44.43359 H 440.01562 v -88.87109 z m 0,0"
     fill="#efedee"
     id="path2" />
  <path
     d="m 66.191406,421.66797 c 0,-24.54297 19.894534,-44.4375 44.437504,-44.4375 H 76.332031 c -24.539062,0 -44.433593,19.89453 -44.433593,44.4375 0,24.53906 19.894531,44.43359 44.433593,44.43359 h 34.296879 c -24.54297,0 -44.437504,-19.89453 -44.437504,-44.43359 z m 0,0"
     fill="#d9d7d8"
     id="path4" />
  <path
     d="M 76.332031,377.23047 H 443.6875 c 10.60547,0 19.19922,-8.59375 19.19922,-19.19922 0,-10.60156 -8.59375,-19.19531 -19.19922,-19.19531 H 70.515625 C 27.980469,338.83594 -6.5,373.3125 -6.5,415.84766 v 11.63671 C -6.5,470.01953 27.980469,504.5 70.515625,504.5 H 443.6875 c 10.60547,0 19.19922,-8.59766 19.19922,-19.19922 0,-10.60156 -8.59375,-19.19922 -19.19922,-19.19922 H 76.332031 c -24.539062,0 -44.433593,-19.89453 -44.433593,-44.43359 0,-24.54297 19.894531,-44.4375 44.433593,-44.4375 z m 0,0"
     fill="#fd6f71"
     id="path6" />
  <path
     d="m 114.95312,211.56641 c -24.53906,0 -44.433589,19.89453 -44.433589,44.43359 0,24.53906 19.894529,44.43359 44.433589,44.43359 h 286.4375 v -88.86718 z m 0,0"
     fill="#efedee"
     id="path8" />
  <path
     d="m 104.8125,256 c 0,-24.53906 19.89453,-44.43359 44.4375,-44.43359 h -34.29688 c -24.53906,0 -44.433589,19.89453 -44.433589,44.43359 0,24.53906 19.894529,44.43359 44.433589,44.43359 H 149.25 c -24.54297,0 -44.4375,-19.89453 -44.4375,-44.43359 z m 0,0"
     fill="#d9d7d8"
     id="path10" />
  <path
     d="m 114.95312,211.56641 h 290.11329 c 10.60546,0 19.19921,-8.59766 19.19921,-19.19922 0,-10.60547 -8.59375,-19.19922 -19.19921,-19.19922 H 109.13672 c -42.535158,0 -77.015626,34.48047 -77.015626,77.01172 v 11.64062 c 0,42.53125 34.480468,77.01172 77.015626,77.01172 h 295.92969 c 10.60546,0 19.19921,-8.59375 19.19921,-19.19922 0,-10.60156 -8.59375,-19.19922 -19.19921,-19.19922 H 114.95313 c -24.53907,0 -44.433599,-19.89453 -44.433599,-44.43359 0,-24.53906 19.894529,-44.43359 44.433589,-44.43359 z m 0,0"
     fill="#58b78c"
     id="path12" />
  <path
     d="m 159.09375,45.898438 c -24.53906,0 -44.43359,19.894531 -44.43359,44.433593 0,24.542969 19.89453,44.437499 44.43359,44.437499 H 357.25391 V 45.898438 Z m 0,0"
     fill="#efedee"
     id="path14" />
  <path
     d="m 148.95312,90.332031 c 0,-24.539062 19.89454,-44.433593 44.4375,-44.433593 h -34.29687 c -24.53906,0 -44.43359,19.894531 -44.43359,44.433593 0,24.542969 19.89453,44.437499 44.43359,44.437499 h 34.29687 c -24.54296,0 -44.4375,-19.89453 -44.4375,-44.437499 z m 0,0"
     fill="#d9d7d8"
     id="path16" />
  <path
     d="m 159.09375,45.898438 h 201.83594 c 10.60156,0 19.19922,-8.597657 19.19922,-19.199219 C 380.12891,16.097656 371.53125,7.5 360.92969,7.5 H 153.27344 c -42.53125,0 -77.011721,34.480469 -77.011721,77.015625 v 11.636719 c 0,42.535156 34.480471,77.011716 77.011721,77.011716 h 207.65234 c 10.60547,0 19.19922,-8.59375 19.19922,-19.19531 0,-10.60547 -8.59375,-19.19922 -19.19922,-19.19922 H 159.09375 c -24.53906,0 -44.43359,-19.89453 -44.43359,-44.437499 0,-24.539062 19.89453,-44.433593 44.43359,-44.433593 z m 0,0"
     fill="#fadc60"
     id="path18" />
  <path
     d="m 447.51562,458.87891 v -74.42579 c 12.91407,-1.86328 22.8711,-13 22.8711,-26.42187 0,-14.72266 -11.97656,-26.69922 -26.69922,-26.69922 h -14.62891 c 1.73047,-3.53515 2.70703,-7.5039 2.70703,-11.69922 0,-13.42187 -9.95703,-24.55859 -22.875,-26.41797 v -74.42968 c 12.91797,-1.85938 22.875,-12.9961 22.875,-26.42188 0,-14.71875 -11.97656,-26.69531 -26.69921,-26.69531 h -20.14454 c 1.73047,-3.53516 2.70704,-7.50781 2.70704,-11.69922 0,-13.42187 -9.96094,-24.55859 -22.875,-26.42187 V 53.121094 c 12.91406,-1.863282 22.875,-13 22.875,-26.421875 C 387.62891,11.976562 375.64844,0 360.92578,0 H 153.27344 C 106.67578,0 68.761719,37.914062 68.761719,84.515625 v 11.636719 c 0,28.847656 14.535156,54.351566 36.660151,69.609376 -44.886714,1.95312 -80.800776,39.06641 -80.800776,84.41797 v 11.64062 c 0,29.06641 14.753906,54.75 37.160156,69.96485 C 19.269531,336.16797 -14,372.19531 -14,415.84766 v 11.63671 C -14,474.08594 23.914062,512 70.515625,512 H 443.6875 c 14.72266,0 26.69922,-11.97656 26.69922,-26.69922 0,-13.42187 -9.95703,-24.55859 -22.8711,-26.42187 z M 76.332031,458.60156 c -17.796875,0 -32.691406,-12.65234 -36.167969,-29.43359 H 432.51562 v 29.43359 z M 432.51562,414.16797 H 40.164062 c 3.476563,-16.78125 18.371094,-29.4375 36.167969,-29.4375 H 432.51562 Z M 114.95312,292.9375 c -17.79687,0 -32.691401,-12.65625 -36.167964,-29.4375 H 393.89062 v 29.4375 z M 393.89062,248.5 H 78.785156 C 82.261719,231.71875 97.15625,219.0625 114.95312,219.0625 H 393.89453 V 248.5 Z M 159.09375,127.26953 c -17.79688,0 -32.69141,-12.65234 -36.16797,-29.437499 H 349.75391 V 127.26953 Z M 349.75391,82.832031 H 122.92578 c 3.47656,-16.78125 18.3711,-29.433593 36.16797,-29.433593 H 349.75391 Z M 443.6875,497 H 70.515625 C 32.183594,497 1,465.81641 1,427.48437 v -11.63671 c 0,-38.33204 31.183594,-69.51563 69.515625,-69.51563 h 74.191405 c 4.14453,0 7.5,-3.35547 7.5,-7.5 0,-4.14453 -3.35547,-7.5 -7.5,-7.5 h -35.57031 c -38.332032,0 -69.515626,-31.18359 -69.515626,-69.51562 v -11.63672 c 0,-38.33203 31.183594,-69.51563 69.515626,-69.51563 h 199.07422 c 4.14062,0 7.5,-3.35547 7.5,-7.5 0,-4.14062 -3.35938,-7.5 -7.5,-7.5 h -154.9375 c -38.32813,0 -69.511721,-31.18359 -69.511721,-69.515622 V 84.515625 C 83.761719,46.183594 114.94531,15 153.27344,15 h 207.65234 c 6.45313,0 11.69922,5.246094 11.69922,11.699219 0,6.449219 -5.24609,11.699219 -11.69922,11.699219 H 159.09375 c -28.63672,0 -51.93359,23.296874 -51.93359,51.933593 0,28.640629 23.29687,51.937499 51.93359,51.937499 h 201.83203 c 6.45313,0 11.69922,5.2461 11.69922,11.69922 0,6.44922 -5.24609,11.69922 -11.69922,11.69922 h -24.71484 c -4.14453,0 -7.5,3.35547 -7.5,7.5 0,4.14062 3.35547,7.5 7.5,7.5 h 68.85547 c 6.44922,0 11.69921,5.24609 11.69921,11.69922 0,6.44922 -5.25,11.69531 -11.69921,11.69531 H 114.95313 c -28.63672,0 -51.933599,23.30078 -51.933599,51.9375 0,28.63672 23.296879,51.9375 51.933599,51.9375 h 290.11328 c 6.45312,0 11.69921,5.24609 11.69921,11.69922 0,6.44922 -5.24609,11.69531 -11.69921,11.69531 H 172.71094 c -4.14453,0 -7.5,3.35938 -7.5,7.5 0,4.14453 3.35547,7.5 7.5,7.5 H 443.6875 c 6.45312,0 11.69922,5.25 11.69922,11.69922 0,6.45312 -5.2461,11.69922 -11.69922,11.69922 H 76.332031 c -28.636719,0 -51.933593,23.29687 -51.933593,51.9375 0,28.63672 23.296874,51.93359 51.933593,51.93359 H 443.6875 c 6.45312,0 11.69922,5.25 11.69922,11.69922 0,6.45313 -5.2461,11.69922 -11.69922,11.69922 z m 0,0"
     id="path20" />
  <text
     xml:space="preserve"
     style="font-size:213.333px;line-height:125%;font-family:sans-serif;letter-spacing:0px;word-spacing:0px;fill:none;stroke:#ffffff;stroke-width:1px;stroke-linecap:butt;stroke-linejoin:miter;stroke-opacity:1;"
     x="574.0108"
     y="344.32001"
     id="text38"><tspan
       sodipodi:role="line"
       id="tspan36"
       x="574.0108"
       y="344.32001"
       style="font-style:normal;font-variant:normal;font-weight:bold;font-stretch:normal;font-size:240px;font-family:Purisa;-inkscape-font-specification:'Purisa, Bold';font-variant-ligatures:normal;font-variant-caps:normal;font-variant-numeric:normal;font-variant-east-asian:normal;fill:#ffffff;stroke:#ffffff;">Aprelendo</tspan></text>
</svg>
