<?xml version="1.0" encoding="UTF-8" standalone="no"?>
<svg
   width="512"
   height="512"
   viewBox="0 0 512 512"
   version="1.1"
   id="svg2"
   sodipodi:docname="he.svg"
   inkscape:version="1.3.2 (091e20ef0f, 2023-11-25)"
   xmlns:inkscape="http://www.inkscape.org/namespaces/inkscape"
   xmlns:sodipodi="http://sodipodi.sourceforge.net/DTD/sodipodi-0.dtd"
   xmlns="http://www.w3.org/2000/svg"
   xmlns:svg="http://www.w3.org/2000/svg">
  <defs
     id="defs2" />
  <sodipodi:namedview
     id="namedview2"
     pagecolor="#ffffff"
     bordercolor="#666666"
     borderopacity="1.0"
     inkscape:showpageshadow="2"
     inkscape:pageopacity="0.0"
     inkscape:pagecheckerboard="0"
     inkscape:deskcolor="#d1d1d1"
     inkscape:zoom="1.5957031"
     inkscape:cx="255.68666"
     inkscape:cy="256"
     inkscape:window-width="1920"
     inkscape:window-height="1014"
     inkscape:window-x="0"
     inkscape:window-y="0"
     inkscape:window-maximized="1"
     inkscape:current-layer="svg2" />
  <mask
     id="a">
    <circle
       cx="256"
       cy="256"
       r="256"
       fill="#fff"
       id="circle1" />
  </mask>
  <g
     mask="url(#a)"
     id="g2">
    <path
       fill="#eee"
       d="M0 0h512v55.7l-25 32.7 25 34v267.2l-26 36 26 30.7V512H0v-55.7l24.8-34.1L0 389.6V122.4l27.2-33.2L0 55.7z"
       id="path1" />
    <path
       fill="#0052b4"
       d="M0 55.7v66.7h512V55.7zm0 333.9v66.7h512v-66.7zm352.4-189.3H288l-32-55.6-32.1 55.6h-64.3l32.1 55.7-32 55.7h64.2l32.1 55.6 32.1-55.6h64.3L320.3 256l32-55.7zm-57 55.7-19.7 34.2h-39.4L216.5 256l19.8-34.2h39.4l19.8 34.2zM256 187.6l7.3 12.7h-14.6zm-59.2 34.2h14.7l-7.4 12.7zm0 68.4 7.3-12.7 7.4 12.7zm59.2 34.2-7.3-12.7h14.6zm59.2-34.2h-14.7l7.4-12.7zm-14.7-68.4h14.7l-7.3 12.7z"
       id="path2" />
  </g>
</svg>
