<?xml version="1.0" encoding="UTF-8" standalone="no"?>
<svg
   width="512"
   height="512"
   viewBox="0 0 512 512"
   version="1.1"
   id="svg5"
   sodipodi:docname="ko.svg"
   inkscape:version="1.3.2 (091e20ef0f, 2023-11-25)"
   xmlns:inkscape="https://www.inkscape.org/namespaces/inkscape"
   xmlns:sodipodi="https://sodipodi.sourceforge.net/DTD/sodipodi-0.dtd"
   xmlns="http://www.w3.org/2000/svg"
   xmlns:svg="https://www.w3.org/2000/svg">
  <defs
     id="defs5" />
  <sodipodi:namedview
     id="namedview5"
     pagecolor="#ffffff"
     bordercolor="#666666"
     borderopacity="1.0"
     inkscape:showpageshadow="2"
     inkscape:pageopacity="0.0"
     inkscape:pagecheckerboard="0"
     inkscape:deskcolor="#d1d1d1"
     inkscape:zoom="1.5957031"
     inkscape:cx="255.68666"
     inkscape:cy="256"
     inkscape:window-width="1920"
     inkscape:window-height="1014"
     inkscape:window-x="0"
     inkscape:window-y="0"
     inkscape:window-maximized="1"
     inkscape:current-layer="svg5" />
  <mask
     id="a">
    <circle
       cx="256"
       cy="256"
       r="256"
       fill="#fff"
       id="circle1" />
  </mask>
  <g
     mask="url(#a)"
     id="g5">
    <path
       fill="#eee"
       d="M0 0h512v512H0Z"
       id="path1" />
    <path
       fill="#333"
       d="m350 335 24-24 16 16-24 23zm-39 39 24-24 15 16-23 24zm87 8 23-24 16 16-24 24zm-40 39 24-23 16 15-24 24Zm16-63 24-23 15 15-23 24zm-39 40 23-24 16 16-24 23zm63-221-63-63 15-15 64 63zm-63-15-24-24 16-16 23 24zm39 39-24-24 16-15 24 23zm8-87-24-23 16-16 24 24Zm39 40-23-24 15-16 24 24ZM91 358l63 63-16 16-63-63zm63 16 23 24-15 15-24-23zm-40-39 24 23-16 16-23-24zm24-24 63 63-16 16-63-63zm16-220-63 63-16-16 63-63zm23 23-63 63-15-16 63-63zm24 24-63 63-16-16 63-63z"
       id="path2" />
    <path
       fill="#d80027"
       d="M319 319 193 193a89 89 0 1 1 126 126z"
       id="path3" />
    <path
       fill="#0052b4"
       d="M319 319a89 89 0 1 1-126-126z"
       id="path4" />
    <circle
       cx="224.5"
       cy="224.5"
       r="44.5"
       fill="#d80027"
       id="circle4" />
    <circle
       cx="287.5"
       cy="287.5"
       r="44.5"
       fill="#0052b4"
       id="circle5" />
  </g>
</svg>
